<svg width="120" height="120" viewBox="0 0 120 120" fill="none" xmlns="http://www.w3.org/2000/svg">
<g opacity="0.5">
<path opacity="0.5" d="M60 120C93.1371 120 120 93.1371 120 60C120 26.8629 93.1371 0 60 0C26.8629 0 0 26.8629 0 60C0 93.1371 26.8629 120 60 120Z" fill="url(#paint0_linear_85_299)"/>
</g>
<path d="M60.1165 118.351C92.5548 118.351 118.851 92.0548 118.851 59.6165C118.851 27.1782 92.5548 0.881836 60.1165 0.881836C27.6782 0.881836 1.38184 27.1782 1.38184 59.6165C1.38184 92.0548 27.6782 118.351 60.1165 118.351Z" fill="#F5F5F5"/>
<path d="M60.1721 118.583C71.6489 118.602 82.8772 115.242 92.4569 108.921C90.2924 97.0934 82.0558 96.4194 82.0558 96.4194H36.6346C36.6346 96.4194 28.8621 97.0573 26.4346 107.938C36.3112 114.885 48.0968 118.604 60.1721 118.583Z" fill="#6C63FF"/>
<path d="M59.5478 86.7285C75.2048 86.7285 87.8974 74.0359 87.8974 58.3789C87.8974 42.7218 75.2048 30.0293 59.5478 30.0293C43.8908 30.0293 31.1982 42.7218 31.1982 58.3789C31.1982 74.0359 43.8908 86.7285 59.5478 86.7285Z" fill="#333333"/>
<path opacity="0.1" d="M50.3984 81.9919H68.5635V96.5243C68.5635 98.9326 67.6071 101.242 65.9045 102.945C64.2019 104.649 61.8926 105.606 59.4844 105.607C57.0756 105.607 54.7654 104.65 53.0621 102.947C51.3588 101.243 50.4019 98.9332 50.4019 96.5243V81.9919H50.3984Z" fill="black"/>
<path d="M50.9739 81.3181H67.9939C68.1467 81.3181 68.2931 81.3788 68.4012 81.4868C68.5092 81.5948 68.5698 81.7413 68.5698 81.894V95.8505C68.5701 97.0437 68.3352 98.2252 67.8786 99.3275C67.4221 100.43 66.7528 101.432 65.909 102.275C65.0653 103.119 64.0635 103.788 62.9611 104.244C61.8586 104.701 60.6771 104.935 59.4839 104.935C57.0751 104.935 54.7649 103.978 53.0616 102.275C51.3583 100.571 50.4014 98.261 50.4014 95.8522V81.894C50.4014 81.7419 50.4616 81.5959 50.5688 81.488C50.6761 81.3801 50.8217 81.319 50.9739 81.3181Z" fill="#FDB797"/>
<path opacity="0.1" d="M50.4307 88.8516C56.2851 91.0388 62.7294 91.0565 68.5957 88.9015V86.6665H50.4307V88.8516Z" fill="black"/>
<path d="M59.548 90.0669C73.928 90.0669 85.5853 78.4097 85.5853 64.0297C85.5853 49.6497 73.928 37.9924 59.548 37.9924C45.168 37.9924 33.5107 49.6497 33.5107 64.0297C33.5107 78.4097 45.168 90.0669 59.548 90.0669Z" fill="#FDB797"/>
<path opacity="0.1" d="M41.001 40.346C41.001 40.346 51.9746 62.6199 82.9288 49.6847L75.7219 38.3844L62.9465 33.7993L41.001 40.346Z" fill="black"/>
<path d="M41.001 40.0194C41.001 40.0194 51.9746 62.2933 82.9288 49.3546L75.7219 38.0543L62.9465 33.4692L41.001 40.0194Z" fill="#333333"/>
<path d="M40.9049 38.5101C41.6448 36.2196 42.9236 34.1402 44.6338 32.4465C49.7553 27.3834 58.1519 26.3158 62.4585 20.5427C63.49 22.145 62.6923 24.6086 60.9112 25.2963C65.0373 25.2688 69.8183 24.9078 72.1513 21.5141C72.7279 22.8563 72.9116 24.3346 72.6813 25.7771C72.4509 27.2197 71.8158 28.5672 70.8499 29.6631C74.5066 29.835 78.4143 32.3106 78.6447 35.9639C78.8029 38.3983 77.2693 40.702 75.2768 42.098C73.2842 43.494 70.8567 44.1353 68.4757 44.6596C61.5232 46.1949 36.3679 52.6195 40.9049 38.5101Z" fill="#333333"/>
<path d="M33.5005 68.5479C34.8383 68.5479 35.9228 66.5143 35.9228 64.0057C35.9228 61.4972 34.8383 59.4636 33.5005 59.4636C32.1626 59.4636 31.0781 61.4972 31.0781 64.0057C31.0781 66.5143 32.1626 68.5479 33.5005 68.5479Z" fill="#FDB797"/>
<path d="M85.5815 68.5479C86.9194 68.5479 88.0039 66.5143 88.0039 64.0057C88.0039 61.4972 86.9194 59.4636 85.5815 59.4636C84.2437 59.4636 83.1592 61.4972 83.1592 64.0057C83.1592 66.5143 84.2437 68.5479 85.5815 68.5479Z" fill="#FDB797"/>
<defs>
<linearGradient id="paint0_linear_85_299" x1="60" y1="120" x2="60" y2="0" gradientUnits="userSpaceOnUse">
<stop stop-color="#808080" stop-opacity="0.25"/>
<stop offset="0.54" stop-color="#808080" stop-opacity="0.12"/>
<stop offset="1" stop-color="#808080" stop-opacity="0.1"/>
</linearGradient>
</defs>
</svg>
