<svg width="1920" height="1080" viewBox="0 0 1920 1080" fill="none" xmlns="http://www.w3.org/2000/svg">
<path d="M1920 0H0V1080H1920V0Z" fill="#3F3D56"/>
<path d="M1920 535.5C1825.92 536.76 1731.63 538.2 1677.23 494.64C1622.61 451.08 1607.68 362.7 1550.51 311.76C1493.12 261 1393.71 247.5 1342.51 201.78C1291.31 156.06 1288.32 78.12 1285.33 0H1920V535.5Z" fill="#96FFD6"/>
<path d="M0 544.5C72.5333 585.72 145.28 626.94 205.013 662.58C264.533 698.22 311.253 728.46 380.16 759.24C449.067 790.02 540.16 821.52 586.24 875.16C632.32 928.62 633.387 1004.4 634.667 1080H0V544.5Z" fill="#96FFD6"/>
</svg>
