<svg width="333" height="234" viewBox="0 0 333 234" fill="none" xmlns="http://www.w3.org/2000/svg">
<g clip-path="url(#clip0_85_339)">
<path d="M102.44 96.543C102.055 94.8698 101.509 93.2379 100.809 91.6702L100.8 91.6474L100.798 91.6418L100.806 91.6624L100.792 91.6302C98.572 86.5228 94.8443 79.0298 88.193 80.3399C85.3955 81.071 83.5848 83.5596 82.4237 86.0701C80.6407 89.5378 78.8983 93.0263 77.0964 96.4842C71.7153 106.546 65.6831 116.244 60.0451 126.163C58.7294 127.753 57.4565 129.409 57.067 131.401C56.3801 135.122 60.6973 137.952 63.8704 136.026C64.0883 135.91 64.0463 135.914 63.9014 135.968C64.6657 135.586 65.4351 135.088 65.1564 135.144C66.4733 134.501 67.5483 133.464 68.7553 132.625C72.7888 129.605 76.8686 126.647 80.8475 123.553C88.6592 117.111 98.1604 111.217 102.102 101.469C103.167 97.4807 102.459 97.8991 102.44 96.543ZM85.3089 103.915L85.3105 103.913C86.5626 101.986 87.7459 100.015 88.9309 98.0468C88.5813 98.4039 88.2275 98.7583 87.8613 99.0992C82.7295 104.182 77.1754 108.844 71.8602 113.743C74.626 110.578 77.3657 107.391 80.0241 104.135C84.2172 98.8455 86.015 96.0976 89.4443 90.9749C89.5962 91.2975 89.7259 91.5819 89.8098 91.766C90.4986 93.4318 91.0092 95.166 91.3329 96.9397C91.3103 97.0325 91.2831 97.1246 91.2598 97.2175C89.5571 100.026 90.8682 98.2559 87.9402 101.469C87.0719 102.294 86.1905 103.105 85.3089 103.915Z" fill="#A0FFF0"/>
<path d="M100.466 90.8589C100.577 91.1143 100.684 91.3731 100.793 91.6305L100.798 91.6421C100.683 91.3651 100.537 91.0145 100.466 90.8589Z" fill="#A0FFF0"/>
<path d="M183.592 77.1458C179.548 67.6122 171.228 58.4201 159.931 61.0258C150.854 63.5064 142.959 79.8278 139.401 88.0656C145.761 80.7272 152.931 72.5927 159.701 69.073C160.067 68.9425 160.441 68.8309 160.819 68.7387C161.402 68.6863 161.989 68.6847 162.572 68.734C162.671 68.7521 162.771 68.7645 162.869 68.7851C163.655 68.958 164.424 69.1966 165.169 69.4986C167.271 70.5624 167.051 70.3565 168.009 71.4389C167.306 71.4012 166.602 71.4105 165.901 71.4669C157.678 71.6221 151.708 78.404 146.778 84.2541C145.681 85.5392 147.351 84.1056 147.93 83.8557C150.448 82.3692 153.069 81.0666 155.718 79.8331C162.496 76.0525 169.122 78.5376 171.548 80.695C174.111 82.5028 175.997 85.7665 179.263 86.2752C184.702 86.6729 185.937 81.2398 183.592 77.1458Z" fill="#A0FFF0"/>
<path d="M247.235 82.2019C241.244 72.3503 226.354 67.9511 226.556 83.8857C229.509 74.7169 234.197 75.6439 238.377 81.0166C242.374 87.0148 243.949 93.0059 245.352 95.8547C248.156 103.228 251.002 110.592 253.244 118.161C254.537 122.245 255.687 126.375 256.596 130.561C257.224 126.886 257.53 123.162 257.512 119.434C257.511 106.416 254.622 93.0793 247.235 82.2019Z" fill="#A0FFF0"/>
<path d="M136.516 50.7158C134.426 50.8317 132.387 51.4045 130.542 52.394C128.697 53.3835 127.091 54.7657 125.836 56.4435C122.13 60.6359 124.849 65.2523 126.885 69.4886C126.835 68.5022 126.727 67.5196 126.563 66.5457C126.632 66.6685 126.707 66.7875 126.789 66.9021C127.115 67.2964 127.552 67.5838 128.043 67.7274C127.471 70.6898 127.97 73.4178 131.438 74.6668C135.015 75.6474 138 72.7556 140.236 70.3299C143.167 66.8792 145.643 62.7533 145.976 58.1439C146.389 51.1962 139.958 50.719 136.516 50.7158ZM126.308 63.1023C126.338 62.0872 126.638 61.0985 127.177 60.2382C127.726 59.6393 128.33 59.0939 128.982 58.609L128.96 58.637C127.836 59.9685 126.94 61.4773 126.308 63.1023Z" fill="#A0FFF0"/>
<path d="M332.801 147.019C332.436 127 330.407 107.077 328.809 87.1324C327.329 70.1508 327.16 53.0086 324.35 36.1697C323.169 28.0989 319.615 20.5633 314.142 14.5235C308.864 9.80264 302.32 6.54007 295.614 4.38704C282.258 0.872931 268.307 0.741252 254.585 0.283489C224.738 -0.975519 194.994 2.34828 165.168 2.66558C139.083 2.6424 113.056 4.2206 87.0203 5.57386C61.7603 6.66832 36.4166 7.49391 11.4442 11.7492C9.71459 12.0078 7.9791 12.2298 6.25419 12.515C10.3885 12.7601 14.5227 13.005 18.663 13.1255C37.9338 13.5563 57.1498 15.361 76.4309 15.4356C92.2145 15.6766 107.937 14.0605 123.693 13.4275C140.681 12.6828 157.689 12.6881 174.682 12.1577C191.795 11.5133 208.87 10.0795 225.984 9.47792C240.183 9.1077 254.397 9.33286 268.59 9.82638C283.826 10.8131 292.934 10.7679 304.885 18.2952C308.082 20.3021 308.26 20.8278 309.647 22.4572C311.325 24.7473 312.775 27.1969 313.975 29.7708C317.769 40.9385 317.662 47.5707 318.879 58.9614C320.158 75.1759 321.464 91.3884 322.794 107.599C325.247 138.593 327.306 171.608 321.686 199.311C319.633 207.724 318.665 211.994 314.249 218.213C314.388 218.022 314.337 218.105 314.181 218.309C314.078 218.453 313.983 218.593 313.876 218.74C313.999 218.563 314.089 218.436 314.16 218.337C313.964 218.593 313.755 218.839 313.533 219.074C313.636 218.991 313.592 219.037 313.463 219.147C313.324 219.294 313.168 219.424 312.999 219.535C313.058 219.483 313.105 219.442 313.155 219.398C312.849 219.648 312.515 219.861 312.159 220.033C309.863 221.157 311.476 220.705 308.485 221.393C304.047 221.596 288.747 219.442 280.452 219.558C265.481 219.543 250.568 221.071 235.617 221.633C210.666 222.628 185.67 222.111 160.75 223.958C117.356 225.736 74.049 230.989 33.8842 219.269C29.1996 218.27 20.4048 212.779 18.0222 211.044C14.9962 208.914 12.6212 205.982 11.1624 202.577C8.48891 194.071 8.68822 189.863 7.96068 181.059C7.48709 170.189 7.59831 159.3 7.43858 148.423C7.37168 127.552 7.52249 106.68 7.38883 85.8096C7.05139 60.4939 5.72093 35.1968 3.75267 9.95838C0.242931 51.1325 -0.228438 92.4506 0.0781609 133.749C0.387016 154.768 -0.69885 175.969 2.41019 196.823C3.67683 206.799 8.80863 214.138 17.3933 219.267C32.1475 228.92 50.2342 230.801 67.3376 232.876C110.047 236.35 152.798 230.723 195.515 230.069C212.021 229.875 228.532 229.799 245.019 228.875C262.166 227.857 279.397 226.367 296.538 228.244C301.489 228.566 306.507 229.719 311.432 228.642C321.269 226.365 325.297 215.798 327.855 207.06C332.869 187.514 333.404 167.098 332.801 147.019Z" fill="#3F3D56"/>
<path d="M313.533 219.074C313.47 219.125 313.347 219.229 313.154 219.398C313.28 219.301 313.385 219.214 313.463 219.147C313.486 219.123 313.51 219.098 313.533 219.074Z" fill="#3F3D56"/>
<path d="M314.248 218.213C314.224 218.246 314.195 218.287 314.159 218.337L314.181 218.309C314.203 218.277 314.226 218.245 314.248 218.213Z" fill="#3F3D56"/>
<path d="M277.662 146.247C271.331 144.516 264.862 143.41 258.432 142.134C251.08 140.678 243.672 139.055 236.153 139.026C235.147 135.363 233.997 131.741 232.769 128.146C235.365 129.857 237.447 132.355 239.514 134.641C240.005 135.233 240.435 135.803 240.897 136.473C240.268 134.526 239.368 132.678 238.224 130.982C237.002 129.098 231.637 121.99 229.694 125.918C229.569 127.832 230.8 129.575 231.469 131.31C232.732 133.952 234.129 136.528 235.655 139.027C235.229 139.029 234.804 139.015 234.377 139.029C220.121 139.197 205.843 139.065 191.587 139.454C190.701 133.883 189.303 125.958 188.051 121.115C188.066 121.127 188.081 121.14 188.096 121.153C190.673 123.521 193.24 126.057 194.751 129.266C195.071 129.901 195.363 130.55 195.645 131.203C195.385 128.917 194.704 126.7 193.638 124.662C192.619 122.767 186.146 112.736 184.154 117.104C183.734 118.873 184.92 120.995 185.235 122.783C186.838 128.471 188.817 134.044 191.159 139.468C182.694 139.705 174.236 140.127 165.796 140.911C165.952 135.458 165.466 130.007 164.347 124.668C163.868 130.114 164.144 135.599 165.167 140.969C164.717 141.012 164.268 141.048 163.818 141.093C157.771 141.88 151.702 142.348 145.622 142.602C146.732 137.646 146.886 132.524 146.078 127.511C145.333 132.506 145.117 137.567 145.434 142.608C138.304 142.9 131.16 142.893 124.02 142.738C124.886 140.176 125.571 137.555 126.07 134.896C126.413 135.8 126.738 136.661 127.029 137.434C126.787 136.142 126.549 134.849 126.308 133.556C126.944 129.683 127.161 125.751 126.956 121.831C126.28 124.081 125.736 126.232 125.285 128.355C124.691 125.445 123.951 122.568 123.068 119.733C120.98 113.598 118.425 107.632 116.307 101.506C116.072 100.882 115.838 100.257 115.606 99.631C122.538 89.7441 129.642 81.2215 137.967 71.4881C142.816 65.9483 147.476 60.1436 152.858 55.1074C153.409 55.6899 153.962 56.2835 154.521 56.9064C154.14 56.167 153.737 55.4244 153.322 54.6828C154.677 53.4364 156.064 52.2253 157.528 51.0965C163.234 46.5057 165.662 48.1328 175.496 59.8099C177.793 62.6399 184.522 71.9819 189.026 77.6456C194.386 84.5133 197.681 88.1782 202.048 94.388C206.268 100.402 210.467 106.437 214.416 112.634C217.943 118.337 221.394 124.093 224.677 129.94C224.57 129.612 224.464 129.284 224.356 128.956C219.456 114.575 213.067 100.747 205.293 87.6982C209.949 79.4777 214.619 72.6785 221.636 66.2146C231.868 58.2337 240.596 54.591 245.524 64.0357C248.783 69.4048 250.432 76.3502 254.589 86.1446C261.463 102.54 266.497 119.589 272.241 136.392C272.46 136.923 272.924 138.703 272.707 137.272C271.818 129.281 270.543 121.338 269.303 113.396C266.918 98.0621 261.775 83.3516 256.483 68.8224C253.567 60.7651 248.169 51.5899 238.569 51.4565C231.152 51.164 225.091 56.2586 219.935 61.007C212.916 68.3717 208.411 77.7244 205.038 87.2607C203.897 85.3742 202.724 83.5079 201.519 81.6618C193.99 71.0473 186.778 60.1349 178.386 50.1773C173.443 44.4749 166.807 38.0948 158.654 41.029C155.007 42.7203 151.724 45.1094 148.991 48.0621C145.349 43.3899 140.743 39.5609 134.858 38.2996C130.08 37.2717 125.097 37.8636 120.692 39.9823C112.385 43.7666 109.237 54.4451 113.207 62.4697C116.05 68.9741 122.535 72.6265 128.25 76.3298C123.55 83.7679 119.303 91.4838 115.532 99.4353C111.636 88.9755 107.861 78.4315 101.75 71.6918C97.9783 67.5019 91.438 63.3468 86.1586 67.387C81.5644 71.2061 78.259 76.3804 74.7091 81.1405C60.315 101.272 49.0878 123.428 39.2489 146.088C32.4737 147.332 25.7099 148.648 18.9287 149.835C36.5619 149.298 54.1295 147.297 71.7837 147.382C92.8688 147.977 113.895 150.144 135.005 150.013C146.659 150.308 158.224 148.901 169.805 147.845C182.172 147.036 194.567 146.685 206.959 146.574C218.424 146.635 229.85 145.724 241.291 145.288C247.674 145.377 254.029 146.045 260.392 146.495C266.608 146.84 272.827 147.186 279.008 147.966C281.661 148.288 284.378 148.704 287.101 149.3C284.023 148.082 280.87 147.062 277.662 146.247ZM117.872 62.3044C115.164 54.4213 117.788 47.7558 124.965 44.8071C132.748 41.7094 139.828 43.6849 147.308 49.8629C145.286 52.1198 143.408 54.517 141.571 56.8264C136.929 63.13 132.475 69.5939 128.31 76.2354C124.074 71.476 119.391 66.8048 117.872 62.3044ZM116.376 142.525C111.629 142.328 106.878 142.083 102.126 141.863C103.979 135.196 105.987 128.4 105.431 121.459C105.078 118.688 104.462 115.697 102.579 113.542C101.162 111.903 98.386 111.412 97.1079 113.466C95.5295 116.527 95.6875 120.25 95.791 123.616C95.9596 126.967 96.743 132.251 97.1079 134.523C97.7068 137.834 97.0883 138.971 94.1396 140.563C93.6601 140.813 93.1669 141.034 92.6622 141.227C93.2867 141.16 93.9059 141.051 94.5159 140.902C99.6491 139.787 99.4498 136.423 99.5538 132.013C99.6511 127.876 99.6592 123.266 100.102 119.801C102.132 126.472 101.196 133.913 101.228 141.822C96.1904 141.593 91.1509 141.406 86.112 141.347C88.5522 133.49 91.1581 124.48 87.6698 116.592C86.5239 114.606 83.6213 113.595 81.7138 115.094C79.6243 116.81 79.8731 119.943 80.2043 122.369C82.506 131.193 85.9187 130.168 81.2852 139.919C80.8646 140.764 81.4918 139.817 81.7483 139.557C83.4355 137.387 85.3913 135.126 85.6999 132.287C86.1247 129.811 84.9494 127.505 84.3194 125.174C83.6873 123.269 83.4716 121.25 83.6868 119.255C83.7309 118.948 83.8126 118.647 83.9301 118.36L83.9548 118.369C83.9777 118.39 84.0033 118.407 84.0309 118.421C84.1836 118.592 84.3151 118.782 84.4222 118.985C86.6637 126.143 86.285 132.477 86.0308 141.346C80.4086 141.282 74.7876 141.379 69.1708 141.781C59.171 142.603 49.2884 144.248 39.4309 146.055C55.0379 121.101 74.6084 92.6451 89.4217 74.7865C89.7733 74.3719 90.1551 73.984 90.5641 73.6262C90.6455 73.5733 90.7224 73.5138 90.8063 73.4651C90.921 73.41 91.0088 73.3672 91.08 73.3321C91.1522 73.3069 91.2266 73.2909 91.3 73.2689C94.6703 74.2429 98.2785 78.0997 101.159 83.1223C106.357 92.1225 110.261 101.792 115.047 111.007C117.38 115.469 120.012 119.781 121.961 124.436C122.543 125.761 123.616 128.49 124.716 131.35C124.096 135.114 123.752 138.919 123.688 142.734C121.25 142.679 118.813 142.61 116.376 142.525Z" fill="#3F3D56"/>
<path d="M207.688 125.545C207.482 125.076 207.279 124.605 207.078 124.133C205.158 119.405 202.517 113.508 199.813 108.365C194.424 98.0593 187.686 86.2504 175.808 82.8122C171.966 82.0407 168.28 83.8138 164.799 85.2126C168.204 84.4995 172.826 83.8386 174.919 84.7699C176.189 85.3183 177.383 86.0308 178.468 86.8894C180.545 88.5314 182.424 90.4099 184.067 92.4871C190.5 101.358 196.036 110.864 202.82 119.49C204.375 121.562 205.954 123.619 207.688 125.545Z" fill="#3F3D56"/>
<path d="M234.683 117.383C233.363 105.107 227.144 93.4553 216.14 87.3782C219.64 91.5449 222.131 94.2173 224.637 99.2646C227.669 105.014 230.785 110.732 233.255 116.755C233.835 118.143 234.464 119.511 235.04 120.899C234.972 119.723 234.833 118.551 234.683 117.383Z" fill="#3F3D56"/>
<path d="M96.3685 86.5306C91.9125 83.9388 88.2337 86.5494 85.1374 89.8269C79.0766 96.3473 74.876 104.346 70.7446 112.168C66.4797 120.207 61.7963 128.016 56.7139 135.562C63.7126 129.298 69.8774 122.157 75.0562 114.316C78.6417 108.826 81.3367 102.822 84.3886 97.031C85.6867 94.4786 87.1956 92.0395 88.8996 89.7391C90.1549 88.1276 91.3098 86.9551 93.2552 86.6772C94.6199 86.5437 95.9969 86.7282 97.2785 87.2162C98.1473 87.5668 96.644 86.7008 96.3685 86.5306Z" fill="#3F3D56"/>
<path d="M174.834 129.051C174.574 127.899 174.286 126.753 173.939 125.622C171.845 119.096 168.438 113.07 163.928 107.915C162.971 106.924 161.951 105.856 160.601 105.445C160.217 105.336 159.815 105.307 159.419 105.358C159.023 105.41 158.641 105.541 158.298 105.745C157.954 105.949 157.655 106.221 157.42 106.544C157.184 106.867 157.017 107.235 156.928 107.625C156.479 110.523 158.956 112.792 160.471 114.986C163.8 119.373 167.655 123.33 171.055 127.653C173.646 131.536 174.647 135.079 176.571 139.452C176.104 135.982 175.806 132.424 174.834 129.051Z" fill="#3F3D56"/>
</g>
<defs>
<clipPath id="clip0_85_339">
<rect width="333" height="234" fill="white"/>
</clipPath>
</defs>
</svg>
