<svg width="14" height="14" viewBox="0 0 14 14" fill="none" xmlns="http://www.w3.org/2000/svg">
<path fill-rule="evenodd" clip-rule="evenodd" d="M1.16699 6.99992C1.71824 4.33758 4.12041 2.33325 7.00033 2.33325C9.88024 2.33325 12.2824 4.33758 12.8337 6.99992C12.2824 9.66225 9.88024 11.6666 7.00033 11.6666C4.12041 11.6666 1.71824 9.66225 1.16699 6.99992ZM7.00033 9.91658C7.77387 9.91658 8.51574 9.60929 9.06272 9.06231C9.6097 8.51533 9.91699 7.77347 9.91699 6.99992C9.91699 6.22637 9.6097 5.4845 9.06272 4.93752C8.51574 4.39054 7.77387 4.08325 7.00033 4.08325C6.22678 4.08325 5.48491 4.39054 4.93793 4.93752C4.39095 5.4845 4.08366 6.22637 4.08366 6.99992C4.08366 7.77347 4.39095 8.51533 4.93793 9.06231C5.48491 9.60929 6.22678 9.91658 7.00033 9.91658ZM7.00033 8.74992C7.46445 8.74992 7.90957 8.56554 8.23776 8.23735C8.56595 7.90917 8.75033 7.46405 8.75033 6.99992C8.75033 6.53579 8.56595 6.09067 8.23776 5.76248C7.90957 5.43429 7.46445 5.24992 7.00033 5.24992C6.5362 5.24992 6.09108 5.43429 5.76289 5.76248C5.4347 6.09067 5.25033 6.53579 5.25033 6.99992C5.25033 7.46405 5.4347 7.90917 5.76289 8.23735C6.09108 8.56554 6.5362 8.74992 7.00033 8.74992Z" fill="#3F3D56"/>
</svg>
