<svg width="861" height="474" viewBox="0 0 861 474" fill="none" xmlns="http://www.w3.org/2000/svg">
<g clip-path="url(#clip0_5_771)">
<path d="M651.623 104.468C651.691 102.337 651.338 100.213 650.584 98.2185C649.83 96.224 648.691 94.3977 647.23 92.8442C645.77 91.2906 644.018 90.0404 642.073 89.165C640.129 88.2897 638.031 87.8063 635.9 87.7427L591.132 86.4058L553.176 54.7127C553.02 53.033 552.396 51.4307 551.374 50.0882C550.352 48.7458 548.974 47.7171 547.397 47.1192C545.819 46.5214 544.106 46.3784 542.451 46.7065C540.796 47.0346 539.267 47.8207 538.037 48.9753C536.807 50.1298 535.925 51.6065 535.493 53.2372C535.061 54.8679 535.095 56.5872 535.592 58.1994C536.089 59.8115 537.029 61.2518 538.304 62.3564C539.579 63.4609 541.139 64.1852 542.805 64.447L582.591 109.774L632.191 119.841C634.503 120.31 636.89 120.269 639.185 119.721C641.479 119.172 643.626 118.13 645.477 116.666C647.327 115.203 648.835 113.353 649.897 111.246C650.958 109.139 651.547 106.826 651.623 104.468Z" fill="#9E616A"/>
<path d="M590.815 115.683L596.677 85.3386L596.868 85.1902C598.113 84.2207 599.621 83.6487 601.195 83.5487C602.77 83.4488 604.338 83.8255 605.695 84.6299L606.035 84.8295L645.562 85.8942L650.189 88.6169L652.86 87.9651C660.932 85.9949 669.089 84.6591 674.065 88.192C676.877 90.1873 678.47 93.5094 678.938 98.343C679.275 101.814 678.827 105.316 677.627 108.59C676.427 111.864 674.507 114.826 672.008 117.258C669.508 119.689 666.494 121.528 663.189 122.637C659.883 123.747 656.37 124.099 652.91 123.667L650.922 123.397L644.411 120.768L634.342 121.963L628.317 119.488L590.815 115.683Z" fill="#3F3D56"/>
<path d="M437.75 451.155C437.882 457.456 437.013 463.739 435.174 469.767C435.109 469.986 435.032 470.205 434.955 470.424H397.036C397.578 467.754 398.439 465.16 399.6 462.696C402.755 455.998 407.907 450.267 412.995 444.574C420.001 436.73 426.84 428.951 427.922 418.75C430.7 422.984 432.916 427.56 434.517 432.364C432.557 433.09 430.759 434.192 429.223 435.609C428.798 436.009 428.347 436.588 428.566 437.142C428.772 437.606 429.339 437.76 429.841 437.863C431.052 438.095 432.263 438.327 433.474 438.546C434.427 438.739 435.393 438.92 436.359 439.1C437.208 443.065 437.673 447.102 437.75 451.155Z" fill="#E6E6E6"/>
<path d="M469.602 446.982C463.522 450.679 459.658 456.398 456.503 462.799C453.757 463.425 451.222 464.757 449.148 466.663C448.71 467.062 448.26 467.642 448.492 468.195C448.685 468.659 449.264 468.814 449.767 468.917C450.964 469.149 452.188 469.38 453.386 469.599C453.27 469.87 453.154 470.153 453.038 470.424H412.853C414.677 467.963 416.697 465.655 418.894 463.52C419.37 463.043 419.86 462.593 420.362 462.129C425.485 457.5 431.367 453.787 437.75 451.155C447.806 446.952 458.802 445.511 469.602 446.982Z" fill="#E6E6E6"/>
<path d="M419.55 470.424H383.77C383.575 467.558 383.592 464.683 383.822 461.82C384.597 452.959 387.283 444.371 391.697 436.649C396.111 428.927 402.147 422.253 409.388 417.088C407.533 423.696 408.487 430.264 410.418 436.859C410.148 436.949 409.878 437.026 409.633 437.129C407.673 437.855 405.875 438.958 404.339 440.375C403.914 440.774 403.463 441.354 403.682 441.908C403.876 442.371 404.455 442.526 404.957 442.629C406.168 442.861 407.379 443.093 408.577 443.312C409.543 443.505 410.509 443.685 411.475 443.878C411.925 443.956 412.376 444.046 412.827 444.136C412.891 444.29 412.93 444.432 412.995 444.574C415.261 450.821 417.734 457.119 418.894 463.52C419.18 465.127 419.378 466.748 419.486 468.376C419.525 469.058 419.55 469.741 419.55 470.424Z" fill="#E6E6E6"/>
<path d="M264.231 414.753C264.615 432.958 262.103 451.109 256.789 468.526C256.602 469.158 256.379 469.791 256.156 470.424H146.601C148.167 462.712 150.653 455.215 154.006 448.096C163.123 428.745 178.009 412.185 192.708 395.737C212.952 373.074 232.712 350.598 235.838 321.125C243.862 333.358 250.266 346.58 254.891 360.459C249.229 362.557 244.033 365.742 239.596 369.837C238.368 370.99 237.066 372.665 237.698 374.265C238.294 375.605 239.931 376.052 241.382 376.349C244.88 377.019 248.378 377.689 251.876 378.322C254.63 378.88 257.421 379.401 260.212 379.922C262.665 391.376 264.011 403.041 264.231 414.753Z" fill="#E6E6E6"/>
<path d="M356.259 402.696C338.694 413.376 327.53 429.899 318.413 448.393C310.48 450.202 303.155 454.05 297.165 459.557C295.899 460.711 294.597 462.386 295.267 463.986C295.825 465.325 297.5 465.772 298.951 466.07C302.412 466.74 305.947 467.409 309.408 468.042C309.073 468.824 308.738 469.642 308.403 470.424H192.299C197.569 463.315 203.406 456.645 209.751 450.478C211.128 449.1 212.542 447.798 213.994 446.458C228.794 433.083 245.789 422.357 264.231 414.753C293.285 402.607 325.057 398.444 356.259 402.696Z" fill="#E6E6E6"/>
<path d="M211.649 470.424H108.272C107.707 462.145 107.757 453.836 108.421 445.565C112.551 394.472 140.349 345.797 182.288 316.325C176.93 335.415 179.683 354.394 185.265 373.447C184.484 373.707 183.702 373.93 182.995 374.228C177.334 376.325 172.138 379.511 167.701 383.606C166.473 384.759 165.171 386.434 165.803 388.034C166.361 389.374 168.036 389.82 169.487 390.118C172.985 390.788 176.483 391.458 179.944 392.09C182.735 392.648 185.526 393.169 188.317 393.728C189.619 393.951 190.922 394.211 192.224 394.472C192.41 394.918 192.522 395.328 192.708 395.737C199.257 413.785 206.402 431.983 209.752 450.478C210.581 455.119 211.152 459.802 211.463 464.507C211.575 466.479 211.649 468.451 211.649 470.424Z" fill="#E6E6E6"/>
<path d="M660.93 414.753C661.314 432.958 658.801 451.109 653.487 468.526C653.301 469.158 653.078 469.791 652.855 470.424H543.3C544.866 462.712 547.352 455.215 550.705 448.096C559.822 428.745 574.707 412.185 589.406 395.737C609.65 373.074 629.41 350.598 632.536 321.125C640.561 333.358 646.965 346.58 651.589 360.459C645.928 362.557 640.732 365.742 636.295 369.837C635.067 370.99 633.764 372.665 634.397 374.265C634.992 375.605 636.63 376.052 638.081 376.349C641.579 377.019 645.077 377.689 648.575 378.322C651.329 378.88 654.12 379.401 656.911 379.922C659.364 391.376 660.71 403.041 660.93 414.753Z" fill="#E6E6E6"/>
<path d="M752.957 402.696C735.393 413.376 724.229 429.899 715.112 448.393C707.178 450.202 699.854 454.05 693.863 459.557C692.598 460.711 691.296 462.386 691.965 463.986C692.524 465.325 694.198 465.772 695.649 466.07C699.11 466.74 702.645 467.409 706.106 468.042C705.771 468.824 705.436 469.642 705.102 470.424H588.997C594.268 463.315 600.104 456.645 606.45 450.478C607.827 449.1 609.241 447.798 610.692 446.458C625.493 433.083 642.487 422.357 660.93 414.753C689.984 402.607 721.755 398.444 752.957 402.696Z" fill="#E6E6E6"/>
<path d="M608.348 470.424H504.97C504.406 462.145 504.455 453.836 505.119 445.565C509.25 394.472 537.048 345.797 578.987 316.325C573.628 335.415 576.382 354.394 581.964 373.447C581.183 373.707 580.401 373.93 579.694 374.228C574.032 376.325 568.836 379.511 564.399 383.606C563.171 384.759 561.869 386.434 562.502 388.034C563.06 389.374 564.734 389.82 566.186 390.118C569.684 390.788 573.182 391.458 576.642 392.09C579.433 392.648 582.224 393.169 585.015 393.728C586.318 393.951 587.62 394.211 588.923 394.472C589.109 394.918 589.22 395.328 589.406 395.737C595.956 413.785 603.101 431.983 606.45 450.478C607.279 455.119 607.851 459.802 608.162 464.507C608.273 466.479 608.348 468.451 608.348 470.424Z" fill="#E6E6E6"/>
<path d="M432.454 113.652C432.445 133.454 425.305 152.591 412.34 167.558C399.376 182.526 381.454 192.324 361.856 195.158C342.258 197.993 322.295 193.675 305.621 182.994C288.946 172.313 276.676 155.984 271.057 136.996C265.437 118.009 266.844 97.6322 275.019 79.5968C283.195 61.5615 297.593 47.0738 315.577 38.7857C333.56 30.4977 353.928 28.9637 372.95 34.4646C391.973 39.9655 408.378 52.1332 419.163 68.7406C417.923 69.8401 416.762 71.0235 415.685 72.2825C415.402 72.6045 415.118 72.9522 414.848 73.2871C414.449 73.7765 414.075 74.266 413.714 74.7683C413.289 75.3479 412.89 75.9403 412.504 76.5457C410.594 79.5123 409.135 82.746 408.176 86.1412C410.678 83.1387 413.618 80.5294 416.896 78.4004C416.964 78.3541 417.038 78.3153 417.115 78.2844C417.437 78.0784 417.759 77.8723 418.093 77.6662C419.525 76.7938 421.009 76.0109 422.537 75.3221C422.666 75.2706 422.795 75.2061 422.923 75.1546C429.206 87.0128 432.479 100.233 432.454 113.652Z" fill="#57FFBE"/>
<path d="M388.47 470.475C386.757 469.058 385.082 467.603 383.447 466.083C370.385 453.804 360.123 438.855 353.359 422.253C347.824 408.86 344.584 394.631 343.777 380.162C343.584 376.736 343.545 373.323 343.635 369.909C343.869 361.007 345.1 352.159 347.306 343.532C349.895 333.511 353.784 323.89 357.855 314.385C359.864 309.683 361.95 304.969 363.959 300.217C370.09 285.766 375.603 270.967 376.453 255.189C377.503 234.859 371.563 214.783 359.619 198.299C358.164 196.289 361.512 194.357 362.955 196.354C364.436 198.376 365.827 200.462 367.128 202.613C377.573 219.922 382.057 240.177 379.892 260.276C378.333 273.968 373.697 286.835 368.416 299.457C365.698 306 362.8 312.465 360.07 318.97C359.245 320.927 358.434 322.885 357.648 324.869C354.585 332.31 352.108 339.98 350.243 347.808C348.303 356.464 347.365 365.315 347.448 374.186C347.473 376.53 347.551 378.861 347.705 381.192C348.723 396.63 352.583 411.747 359.091 425.782C366.543 441.985 377.518 456.321 391.213 467.745C393.132 469.329 390.376 472.047 388.47 470.475Z" fill="#3F3D56"/>
<path d="M360.057 434.734C357.958 434.154 355.88 433.514 353.823 432.815C337.053 427 321.718 417.668 308.847 405.445C295.98 393.33 285.74 378.701 278.76 362.465C275.271 354.331 272.701 345.834 271.096 337.13C270.226 332.185 269.611 327.198 269.254 322.19C268.803 316.098 268.649 309.967 268.572 303.862C268.404 290.029 268.623 275.887 266.524 262.183C265.406 254.239 263.254 246.475 260.122 239.089C252.562 221.723 239.669 207.215 223.312 197.668C221.161 196.418 223.106 193.082 225.257 194.332C227.253 195.491 229.211 196.714 231.117 198.028C246.633 208.728 258.535 223.887 265.249 241.498C267.631 247.908 269.332 254.552 270.323 261.32C272.655 276.402 272.217 291.961 272.487 307.172C272.577 312.349 272.758 317.54 273.17 322.718C273.562 328.292 274.324 333.834 275.449 339.307C277.261 347.864 280.031 356.189 283.705 364.126C291.168 380.127 301.895 394.389 315.197 405.999C328.445 417.636 344.116 426.18 361.075 431.011C363.47 431.681 362.453 435.416 360.057 434.734Z" fill="#3F3D56"/>
<path d="M213.485 199.432C201.496 204.748 188.412 207.127 175.319 206.37C162.226 205.614 149.503 201.745 138.206 195.084C126.909 188.424 117.364 179.163 110.364 168.073C103.364 156.983 99.1119 144.382 97.9598 131.318C96.8077 118.254 98.7893 105.104 103.74 92.9601C108.691 80.8158 116.467 70.0281 126.424 61.4929C136.381 52.9577 148.231 46.9214 160.989 43.8855C173.748 40.8495 187.046 40.9015 199.781 44.0371C199.407 44.5522 199.046 45.0932 198.699 45.6342C196.789 48.6007 195.33 51.8345 194.371 55.2297C196.873 52.2272 199.813 49.6178 203.091 47.4889C203.159 47.4426 203.233 47.4037 203.31 47.3729C203.632 47.1669 203.954 46.9607 204.288 46.7547C204.829 46.4198 205.37 46.1107 205.924 45.8144C217.64 49.6781 228.34 56.1218 237.235 64.6705C235.996 65.5209 234.813 66.4502 233.693 67.4526C232.454 68.5521 231.292 69.7356 230.216 70.9946C229.932 71.3166 229.649 71.6643 229.378 71.9992C228.979 72.4886 228.606 72.978 228.245 73.4804C228.206 73.5448 228.155 73.5963 228.116 73.6607C227.743 74.1759 227.382 74.7168 227.034 75.2578C225.125 78.2243 223.666 81.4581 222.707 84.8533C225.209 81.8508 228.148 79.2414 231.426 77.1125C231.495 77.0662 231.568 77.0274 231.645 76.9965C231.967 76.7905 232.289 76.5844 232.624 76.3783C233.165 76.0435 233.706 75.7343 234.26 75.438C235.174 74.9358 236.115 74.472 237.068 74.0342C237.196 73.9827 237.325 73.9182 237.454 73.8667C239.49 72.9756 241.597 72.2561 243.752 71.7158C251.813 81.5355 257.496 93.0843 260.359 105.462C263.222 117.839 263.188 130.71 260.258 143.072C257.328 155.434 251.583 166.952 243.47 176.728C235.356 186.504 225.095 194.274 213.485 199.432L213.485 199.432Z" fill="#57FFBE"/>
<path d="M148.411 69.2213C147.22 71.3045 148.899 88.6328 155.807 100.598L158.425 99.0871C146.775 80.6357 162.082 66.563 157.714 59.8613C152.445 67.1415 154.149 64.9113 148.411 69.2213Z" fill="#57FFBE"/>
<path d="M115.043 104.689C138.945 89.0948 151.243 93.8439 154.404 98.1678L155.366 115.81L138.135 118.779C121.341 117.755 121.302 109.053 115.043 104.689Z" fill="#57FFBE"/>
<path d="M148.411 69.2213C147.22 71.3045 148.899 88.6328 155.807 100.598L158.425 99.0871C146.775 80.6357 162.082 66.563 157.714 59.8613C152.445 67.1415 154.149 64.9113 148.411 69.2213Z" stroke="black" stroke-width="2.59061" stroke-linecap="round" stroke-linejoin="round"/>
<path d="M115.043 104.689C138.945 89.0948 151.243 93.8439 154.404 98.1678L155.366 115.81L138.135 118.779C121.341 117.755 121.302 109.053 115.043 104.689Z" stroke="black" stroke-width="2.59061" stroke-linecap="round" stroke-linejoin="round"/>
<path d="M159.633 99.885C156.982 85.794 159.305 59.9399 189.809 69.2511C170.831 76.9672 163.029 80.724 159.633 99.885Z" fill="#57FFBE"/>
<path d="M160.936 103.869C169.76 106.918 193.573 107.462 218.237 85.2446C197.904 59.0932 158.956 74.1013 160.936 103.869Z" fill="#57FFBE"/>
<path d="M159.633 99.885C156.982 85.794 159.305 59.9399 189.809 69.2511C170.831 76.9672 163.029 80.724 159.633 99.885Z" stroke="black" stroke-width="2.59061" stroke-linecap="round" stroke-linejoin="round"/>
<path d="M160.936 103.869C169.76 106.918 193.573 107.462 218.237 85.2446C197.904 59.0932 158.956 74.1013 160.936 103.869Z" stroke="black" stroke-width="2.59061" stroke-linecap="round" stroke-linejoin="round"/>
<circle cx="181.732" cy="137.73" r="44.4722" transform="rotate(-30 181.732 137.73)" fill="#57FFBE" stroke="black" stroke-width="3.45415"/>
<path d="M338.793 49.9464C336.989 51.5276 332.925 68.4562 335.555 82.0203L338.522 81.4451C333.525 60.2036 352.584 51.8911 350.64 44.1314C343.285 49.2956 345.623 47.7429 338.793 49.9464Z" fill="#57FFBE"/>
<path d="M295.685 72.5964C323.365 65.6475 333.442 74.1468 335.021 79.2651L330.178 96.2567L312.92 93.4448C297.378 87.0018 300.178 78.7622 295.685 72.5964Z" fill="#57FFBE"/>
<path d="M338.793 49.9464C336.989 51.5276 332.925 68.4562 335.555 82.0203L338.522 81.4451C333.525 60.2036 352.584 51.8911 350.64 44.1314C343.285 49.2956 345.623 47.7429 338.793 49.9464Z" stroke="black" stroke-width="2.59061" stroke-linecap="round" stroke-linejoin="round"/>
<path d="M295.685 72.5964C323.365 65.6475 333.442 74.1468 335.021 79.2651L330.178 96.2567L312.92 93.4448C297.378 87.0018 300.178 78.7622 295.685 72.5964Z" stroke="black" stroke-width="2.59061" stroke-linecap="round" stroke-linejoin="round"/>
<path d="M339.404 82.5935C341.492 68.4081 352.119 44.7245 377.919 63.4727C357.463 64.5793 348.862 65.5869 339.404 82.5935Z" fill="#57FFBE"/>
<path d="M339.337 86.7847C346.684 92.544 369.018 100.822 399.579 87.8614C388.884 56.5094 347.171 57.9981 339.337 86.7847Z" fill="#57FFBE"/>
<path d="M339.404 82.5935C341.492 68.4081 352.119 44.7245 377.919 63.4727C357.463 64.5793 348.862 65.5869 339.404 82.5935Z" stroke="black" stroke-width="2.59061" stroke-linecap="round" stroke-linejoin="round"/>
<path d="M339.337 86.7847C346.684 92.544 369.018 100.822 399.579 87.8614C388.884 56.5094 347.171 57.9981 339.337 86.7847Z" stroke="black" stroke-width="2.59061" stroke-linecap="round" stroke-linejoin="round"/>
<circle cx="347.956" cy="125.576" r="44.4722" transform="rotate(-10.9704 347.956 125.576)" fill="#57FFBE" stroke="black" stroke-width="3.45415"/>
<path d="M450.684 115.322C445.212 134.353 446.777 154.718 455.092 172.689C463.407 190.661 477.916 205.037 495.963 213.185C514.011 221.334 534.39 222.71 553.369 217.062C572.348 211.414 588.659 199.12 599.314 182.429C609.97 165.739 614.259 145.769 611.395 126.176C608.531 106.582 598.706 88.675 583.719 75.7328C568.732 62.7906 549.585 55.6789 529.783 55.6994C509.981 55.7199 490.849 62.8712 475.889 75.8444C476.775 77.2439 477.564 78.7028 478.25 80.2106C478.433 80.5984 478.609 81.011 478.776 81.4077C479.025 81.9885 479.248 82.5622 479.456 83.1447C479.704 83.8193 479.923 84.4991 480.127 85.1878C481.141 88.5671 481.647 92.0782 481.629 95.6063C480.056 92.0285 477.954 88.7074 475.393 85.7543C475.34 85.6909 475.28 85.6332 475.215 85.5823C474.962 85.2952 474.71 85.008 474.445 84.7173C473.311 83.4828 472.102 82.3197 470.824 81.2348C470.715 81.1496 470.609 81.052 470.499 80.9669C461.18 90.6227 454.375 102.42 450.684 115.322Z" fill="#57FFBE"/>
<path d="M497.279 216.794C495.411 218.237 493.604 219.757 491.856 221.354C477.843 234.223 468.316 251.238 464.667 269.911C464.409 271.25 464.19 272.602 463.997 273.955C461.009 294.794 465.517 315.943 467.719 336.654C467.797 337.362 467.874 338.058 467.938 338.766C469.043 348.479 469.177 358.277 468.338 368.016C467.45 376.816 465.606 385.492 462.838 393.892C457.257 410.647 448.337 426.097 436.615 439.306C424.904 452.613 410.435 463.21 394.214 470.359C391.96 471.338 389.99 468.002 392.269 467.023C394.292 466.135 396.301 465.207 398.271 464.216C413.966 456.191 427.723 444.842 438.585 430.96C449.466 417.185 457.309 401.265 461.602 384.245C463.774 375.63 464.928 366.789 465.04 357.905C465.079 351.888 464.796 345.873 464.19 339.886C463.701 334.657 463.031 329.428 462.361 324.212C460.236 307.854 458.098 291.239 460.056 274.921C460.657 269.806 461.708 264.755 463.199 259.826C468.722 241.728 479.659 225.757 494.535 214.063C496.48 212.544 499.236 215.261 497.279 216.794Z" fill="#3F3D56"/>
<path d="M361.906 264.093C357.188 252.712 348.346 243.127 340.559 233.288C331.091 221.3 311.605 226.831 310.331 242.044C319.069 244.916 320.203 257.537 310.209 259.265C312.761 286.802 330.333 312.195 354.76 324.958L366.84 302.385C368.473 289.533 366.044 274.067 361.906 264.093Z" fill="#3F3D56"/>
<path d="M366.834 302.439C366.969 302.172 367.103 301.906 367.239 301.64L366.84 302.384L366.834 302.439Z" fill="#2F2E41"/>
<path d="M453.353 360.691C448.635 349.311 439.792 339.726 432.006 329.887C422.538 317.899 403.052 323.43 401.778 338.643C410.516 341.515 411.65 354.136 401.656 355.863C404.207 383.401 421.779 408.794 446.206 421.556L458.287 398.983C459.92 386.132 457.491 370.666 453.353 360.691Z" fill="#3F3D56"/>
<path d="M483.923 330.831C493.549 338.521 505.919 342.647 517.488 347.505C531.567 353.433 545.963 339.184 539.735 325.245C530.696 326.948 523.61 316.442 531.529 310.105C516.002 287.22 488.355 273.463 460.802 274.077L461.118 299.678C465.891 311.722 475.484 324.093 483.923 330.831Z" fill="#3F3D56"/>
<path d="M249.623 332.119C239.998 339.809 227.627 343.935 216.058 348.793C201.98 354.721 187.584 340.472 193.812 326.533C202.851 328.236 209.936 317.73 202.018 311.393C217.545 288.508 245.191 274.751 272.745 275.365L272.429 300.966C267.655 313.009 258.062 325.381 249.623 332.119Z" fill="#3F3D56"/>
<path d="M458.281 399.037C458.415 398.771 458.55 398.505 458.685 398.239L458.287 398.983L458.281 399.037Z" fill="#2F2E41"/>
<path d="M566.669 86.36C564.271 86.282 549.738 95.8683 542.392 107.57L544.952 109.177C555.814 90.2512 575.411 97.2018 579.293 90.2072C570.393 88.9535 573.162 89.4167 566.669 86.36Z" fill="#57FFBE"/>
<path d="M519.715 73.45C544.676 87.2858 546.228 100.377 543.884 105.193L528.739 114.293L518.058 100.449C511.109 85.1262 518.784 81.0226 519.715 73.45Z" fill="#57FFBE"/>
<path d="M566.669 86.36C564.271 86.282 549.738 95.8683 542.392 107.57L544.952 109.177C555.814 90.2512 575.411 97.2018 579.293 90.2072C570.393 88.9535 573.162 89.4167 566.669 86.36Z" stroke="black" stroke-width="2.59061" stroke-linecap="round" stroke-linejoin="round"/>
<path d="M519.715 73.45C544.676 87.2858 546.228 100.377 543.884 105.193L528.739 114.293L518.058 100.449C511.109 85.1262 518.784 81.0226 519.715 73.45Z" stroke="black" stroke-width="2.59061" stroke-linecap="round" stroke-linejoin="round"/>
<path d="M544.811 110.618C556.027 101.686 579.967 91.6503 586 122.967C570.305 109.8 563.336 104.66 544.811 110.618Z" fill="#57FFBE"/>
<path d="M541.899 113.633C543.33 122.858 553.984 144.162 585.156 155.575C598.764 125.373 567.286 97.9634 541.899 113.633Z" fill="#57FFBE"/>
<path d="M544.811 110.618C556.027 101.686 579.967 91.6503 586 122.967C570.305 109.8 563.336 104.66 544.811 110.618Z" stroke="black" stroke-width="2.59061" stroke-linecap="round" stroke-linejoin="round"/>
<path d="M541.899 113.633C543.33 122.858 553.984 144.162 585.156 155.575C598.764 125.373 567.286 97.9634 541.899 113.633Z" stroke="black" stroke-width="2.59061" stroke-linecap="round" stroke-linejoin="round"/>
<circle cx="521.692" cy="147.849" r="44.4722" transform="rotate(32.1215 521.692 147.849)" fill="#57FFBE" stroke="black" stroke-width="3.45415"/>
<path d="M615.348 165.172L612.772 174.188L614.06 211.539L668.155 194.795L673.587 159L615.348 165.172Z" fill="#9E616A"/>
<path d="M576.179 446.173L562.788 443.569L566.463 390.678L586.226 394.522L576.179 446.173Z" fill="#9E616A"/>
<path d="M581.999 440.445L577.512 439.297L563.33 435.647L561.081 435.065L559.316 444.143L536.486 454.123C535.357 454.615 534.415 455.454 533.798 456.519C533.18 457.584 532.92 458.819 533.054 460.043C533.188 461.267 533.711 462.415 534.544 463.321C535.378 464.227 536.48 464.842 537.688 465.077L562.899 469.98L568.981 461.846L568.942 471.155L578.437 473.001L581.999 440.445Z" fill="#2F2E41"/>
<path d="M748.454 437.117L735.319 440.802L714.853 391.893L734.238 386.454L748.454 437.117Z" fill="#9E616A"/>
<path d="M751.082 429.385L746.557 430.374L732.245 433.481L729.975 433.971L732.474 442.874L716.556 462.043C715.768 462.989 715.304 464.162 715.23 465.391C715.157 466.62 715.478 467.84 716.148 468.874C716.817 469.907 717.8 470.698 718.952 471.133C720.103 471.568 721.364 471.623 722.549 471.291L747.276 464.351L749.059 454.353L753.204 462.688L762.517 460.074L751.082 429.385Z" fill="#2F2E41"/>
<path d="M611.484 203.811L672.587 185C672.587 185 670.731 190.931 678.413 203.693C686.437 217.024 690.987 232.582 691.161 244.834C691.539 271.337 695.087 297.7 703.027 322.989L703.716 325.185C703.716 325.185 722.222 340.282 729.978 372.537L745.931 411.704L726.115 417.616L674.215 339.415L669.283 335.423C665.694 332.518 662.771 328.876 660.712 324.744C658.652 320.612 657.504 316.085 657.345 311.471L641.755 285.648L630.168 308.381L611.431 335.033L599.996 374.287C596.548 392.573 593.69 409.692 581.86 424.056L560.462 421.196L575.421 331.322L588.828 292.265L598.882 262.977L605.044 245.027L611.484 203.811Z" fill="#2F2E41"/>
<path d="M607.744 185.008C606.927 190.157 608.249 194.919 607.587 201C607.477 202.007 604.906 204.365 604.827 205.366C604.639 207.752 606.529 208.738 606.587 211C606.632 212.766 604.788 215.845 605.039 217.469C607.684 234.585 623.087 242.186 679.587 206C679.587 206 684.587 203 681.137 196.852C680.217 195.213 684.237 193.304 684.587 191C684.853 189.249 682.659 186.972 682.943 185C683.278 182.672 683.622 180.202 683.967 177.616C688.473 143.872 693.159 90.4281 680.066 77.0413L672.673 63.4212L644.972 68.1354L644.874 79.8201L625.179 100.362C625.179 100.362 606.094 120.021 612.587 139C617.297 157.243 615.546 165.424 607.744 185.008Z" fill="#3F3D56"/>
<path d="M664.29 106.38C662.244 105.779 660.1 105.588 657.98 105.817C655.86 106.046 653.807 106.691 651.936 107.715C650.066 108.739 648.416 110.122 647.081 111.784C645.746 113.447 644.752 115.356 644.155 117.403L631.629 160.404L591.427 189.194C589.761 188.924 588.054 189.126 586.498 189.778C584.942 190.43 583.601 191.506 582.626 192.883C581.651 194.26 581.083 195.883 580.986 197.567C580.888 199.252 581.265 200.929 582.074 202.41C582.883 203.89 584.092 205.114 585.562 205.941C587.032 206.768 588.705 207.167 590.39 207.09C592.075 207.014 593.705 206.465 595.094 205.508C596.483 204.551 597.576 203.223 598.247 201.675L652.107 174.535L674.296 129.047C675.331 126.926 675.89 124.606 675.935 122.247C675.98 119.888 675.509 117.548 674.557 115.39C673.604 113.232 672.192 111.307 670.418 109.751C668.645 108.195 666.554 107.044 664.29 106.38Z" fill="#9E616A"/>
<path d="M659.89 168.056L631.987 154.769L631.891 154.546C631.265 153.098 631.09 151.495 631.388 149.946C631.686 148.396 632.445 146.973 633.564 145.861L633.842 145.582L644.79 107.586L648.587 103.79L648.626 101.042C648.744 92.733 649.497 84.502 654.166 80.572C656.803 78.3507 660.418 77.642 665.215 78.401C668.659 78.946 671.937 80.2584 674.805 82.2412C677.673 84.224 680.059 86.8264 681.786 89.8558C683.513 92.8852 684.536 96.2641 684.781 99.7425C685.025 103.221 684.484 106.71 683.198 109.951L682.439 111.807L678.26 117.45L676.89 127.497L672.982 132.708L659.89 168.056Z" fill="#3F3D56"/>
<path d="M622.428 67.5998L628.348 67.0815C627.67 64.747 627.248 62.3456 627.09 59.9197C628.447 62.5326 630.322 64.8416 632.601 66.7057L666.549 63.7096L687.204 22.0266C682.286 5.8746 669.552 -3.63246 653.485 1.31008C652.516 1.608 651.527 1.96332 650.541 2.36896C641.413 3.58643 633.113 8.29812 627.389 15.5121C621.665 22.7261 618.964 31.8795 619.854 41.0453C611.914 55.7619 618.073 61.084 622.428 67.5998Z" fill="#2F2E41"/>
<path d="M645.801 60.5087C658.686 60.5087 669.131 50.0635 669.131 37.1786C669.131 24.2937 658.686 13.8485 645.801 13.8485C632.916 13.8485 622.471 24.2937 622.471 37.1786C622.471 50.0635 632.916 60.5087 645.801 60.5087Z" fill="#9E616A"/>
<path d="M614.549 30.7345C617.048 32.5073 623.83 32.6694 631.644 32.0794C631.585 31.9314 631.539 31.7797 631.492 31.628C630.814 29.2935 630.392 26.8921 630.234 24.4662C631.591 27.0791 633.466 29.3881 635.745 31.2522C635.915 31.3914 636.086 31.5305 636.268 31.666C642.915 30.9754 649.837 29.8935 655.227 28.938C655.611 42.8952 645.169 57.6539 649.056 65.016L691.68 60.8707C690.434 57.6979 689.689 54.3507 689.471 50.9489C691.525 54.8952 694.736 58.1191 698.674 60.1883L702.297 59.8402L701.772 54.5222C704.07 30.684 685.152 12.8229 661.616 7.81351C656.382 3.54503 649.67 1.52245 642.949 2.18792L637.627 2.70092C634.271 3.02616 631.012 4.00928 628.036 5.59414C625.06 7.179 622.425 9.33456 620.282 11.9377C618.139 14.5409 616.53 17.5407 615.546 20.7659C614.562 23.991 614.223 27.3784 614.549 30.7345Z" fill="#2F2E41"/>
<path d="M650.611 3.54418C655.948 4.49022 660.784 7.27702 664.279 11.4199C667.774 15.5628 669.706 20.7997 669.74 26.2197C669.753 26.6085 669.917 26.977 670.197 27.2473C670.477 27.5176 670.851 27.6686 671.24 27.6686C671.629 27.6686 672.003 27.5176 672.283 27.2473C672.562 26.977 672.726 26.6085 672.74 26.2197C672.706 20.144 670.559 14.2693 666.667 9.60395C662.774 4.93855 657.38 1.7733 651.408 0.651341C649.521 0.311341 648.711 3.20193 650.611 3.54418H650.611Z" fill="#FD6584"/>
<path d="M858.941 472.978L1.19066 473.286C0.875467 473.285 0.573504 473.159 0.350952 472.936C0.1284 472.712 0.00341797 472.41 0.00341797 472.095C0.00341797 471.78 0.1284 471.477 0.350952 471.254C0.573504 471.031 0.875467 470.905 1.19066 470.904L858.941 470.597C859.256 470.597 859.559 470.722 859.783 470.946C860.006 471.169 860.131 471.472 860.131 471.788C860.131 472.103 860.006 472.406 859.783 472.63C859.559 472.853 859.256 472.978 858.941 472.978Z" fill="#CACACA"/>
</g>
<defs>
<clipPath id="clip0_5_771">
<rect width="860.131" height="473.286" fill="white"/>
</clipPath>
</defs>
</svg>
