<svg width="794" height="663" viewBox="0 0 794 663" fill="none" xmlns="http://www.w3.org/2000/svg">
<g clip-path="url(#clip0_5_706)">
<path d="M542.134 -0.000151271L0 321.247L16.3043 348.762L558.438 27.5148L542.134 -0.000151271Z" fill="#F2F2F2"/>
<path d="M659.965 26.9329L117.832 348.18L134.136 375.695L676.27 54.4479L659.965 26.9329Z" fill="#F2F2F2"/>
<path d="M764.33 56.3907L222.196 377.638L238.501 405.153L780.634 83.9057L764.33 56.3907Z" fill="#F2F2F2"/>
<path d="M353.12 376.579C446.863 376.579 522.856 300.586 522.856 206.844C522.856 113.101 446.863 37.1079 353.12 37.1079C259.378 37.1079 183.385 113.101 183.385 206.844C183.385 300.586 259.378 376.579 353.12 376.579Z" fill="white"/>
<path d="M182.122 206.844C182.122 112.555 258.831 35.8455 353.12 35.8455C447.409 35.8455 524.118 112.555 524.118 206.844C524.118 301.132 447.409 377.842 353.12 377.842C258.831 377.842 182.122 301.132 182.122 206.844ZM184.647 206.844C184.647 299.74 260.224 375.317 353.12 375.317C446.017 375.317 521.594 299.74 521.594 206.844C521.594 113.947 446.017 38.3704 353.12 38.3704C260.224 38.3704 184.647 113.947 184.647 206.844H184.647Z" fill="#3F3D56"/>
<path d="M322.863 207.582C322.863 201.597 324.638 195.747 327.962 190.771C331.287 185.796 336.013 181.918 341.541 179.627C347.07 177.337 353.154 176.738 359.023 177.906C364.893 179.073 370.284 181.955 374.515 186.186C378.747 190.418 381.629 195.809 382.796 201.679C383.964 207.548 383.364 213.632 381.074 219.16C378.784 224.689 374.906 229.415 369.93 232.74C364.955 236.064 359.105 237.839 353.12 237.839C345.096 237.839 337.399 234.651 331.725 228.977C326.051 223.302 322.863 215.606 322.863 207.582V207.582ZM353.12 178.8C345.49 178.809 338.174 181.844 332.778 187.24C327.383 192.635 324.348 199.951 324.339 207.582C324.339 213.274 326.027 218.839 329.19 223.572C332.352 228.305 336.847 231.994 342.106 234.172C347.365 236.35 353.152 236.92 358.735 235.81C364.318 234.699 369.447 231.958 373.472 227.933C377.497 223.908 380.238 218.78 381.349 213.196C382.459 207.613 381.889 201.827 379.711 196.567C377.532 191.308 373.843 186.813 369.11 183.651C364.377 180.488 358.813 178.8 353.12 178.8Z" fill="#3F3D56"/>
<path d="M295.558 207.582C295.558 196.197 298.934 185.068 305.259 175.602C311.584 166.135 320.574 158.758 331.092 154.401C341.61 150.044 353.184 148.904 364.35 151.125C375.516 153.346 385.773 158.829 393.823 166.879C401.874 174.929 407.356 185.186 409.577 196.352C411.798 207.518 410.658 219.092 406.301 229.61C401.944 240.128 394.567 249.118 385.1 255.443C375.634 261.768 364.505 265.144 353.12 265.144C345.561 265.144 338.076 263.655 331.092 260.762C324.108 257.87 317.763 253.63 312.417 248.284C307.072 242.939 302.832 236.594 299.94 229.61C297.047 222.626 295.558 215.141 295.558 207.582V207.582ZM353.12 151.495C342.028 151.495 331.184 154.784 321.96 160.947C312.737 167.11 305.548 175.87 301.303 186.118C297.058 196.367 295.947 207.644 298.111 218.524C300.276 229.403 305.617 239.397 313.461 247.241C321.305 255.085 331.299 260.426 342.178 262.591C353.058 264.755 364.335 263.644 374.584 259.399C384.832 255.154 393.592 247.965 399.755 238.742C405.918 229.518 409.207 218.675 409.207 207.582C409.19 192.712 403.276 178.456 392.761 167.941C382.246 157.426 367.99 151.512 353.12 151.495Z" fill="#CCCCCC"/>
<path d="M240.947 207.582C240.947 185.396 247.526 163.708 259.852 145.262C272.177 126.815 289.696 112.437 310.193 103.947C330.69 95.457 353.245 93.2356 375.004 97.5639C396.764 101.892 416.751 112.576 432.439 128.263C448.126 143.951 458.81 163.938 463.138 185.698C467.466 207.457 465.245 230.012 456.755 250.509C448.265 271.006 433.887 288.525 415.44 300.85C396.994 313.176 375.306 319.755 353.12 319.755C323.38 319.721 294.868 307.892 273.839 286.863C252.81 265.834 240.981 237.322 240.947 207.582ZM353.12 96.8845C331.226 96.8845 309.824 103.377 291.62 115.54C273.416 127.704 259.228 144.992 250.849 165.22C242.471 185.447 240.279 207.705 244.55 229.178C248.821 250.651 259.364 270.375 274.845 285.857C290.327 301.338 310.051 311.881 331.524 316.152C352.997 320.423 375.255 318.231 395.482 309.853C415.71 301.474 432.998 287.286 445.162 269.082C457.325 250.878 463.818 229.476 463.818 207.582C463.784 178.233 452.111 150.096 431.358 129.344C410.606 108.591 382.469 96.9177 353.12 96.8845Z" fill="#CCCCCC"/>
<path d="M353.12 220.865C360.864 220.865 367.142 214.588 367.142 206.844C367.142 199.1 360.864 192.822 353.12 192.822C345.376 192.822 339.099 199.1 339.099 206.844C339.099 214.588 345.376 220.865 353.12 220.865Z" fill="#00FF9C"/>
<path d="M316.959 261.454C324.703 261.454 330.981 255.176 330.981 247.433C330.981 239.689 324.703 233.411 316.959 233.411C309.215 233.411 302.938 239.689 302.938 247.433C302.938 255.176 309.215 261.454 316.959 261.454Z" fill="#00FF9C"/>
<path d="M458.035 255.55C465.779 255.55 472.057 249.273 472.057 241.529C472.057 233.785 465.779 227.507 458.035 227.507C450.291 227.507 444.014 233.785 444.014 241.529C444.014 249.273 450.291 255.55 458.035 255.55Z" fill="#00FF9C"/>
<path d="M353.12 213.486C356.789 213.486 359.762 210.512 359.762 206.844C359.762 203.176 356.789 200.202 353.12 200.202C349.452 200.202 346.479 203.176 346.479 206.844C346.479 210.512 349.452 213.486 353.12 213.486Z" fill="#2F2E41"/>
<path d="M458.035 248.171C461.704 248.171 464.677 245.197 464.677 241.529C464.677 237.861 461.704 234.887 458.035 234.887C454.367 234.887 451.394 237.861 451.394 241.529C451.394 245.197 454.367 248.171 458.035 248.171Z" fill="#2F2E41"/>
<path d="M316.959 254.812C320.627 254.812 323.601 251.839 323.601 248.171C323.601 244.502 320.627 241.529 316.959 241.529C313.291 241.529 310.317 244.502 310.317 248.171C310.317 251.839 313.291 254.812 316.959 254.812Z" fill="#2F2E41"/>
<path d="M43.1682 138.949C46.8364 138.949 49.81 135.976 49.81 132.308C49.81 128.639 46.8364 125.666 43.1682 125.666C39.5 125.666 36.5264 128.639 36.5264 132.308C36.5264 135.976 39.5 138.949 43.1682 138.949Z" fill="#00FF9C"/>
<path d="M352.751 132.677H61.248V131.201H354.228V207.212H352.751V132.677Z" fill="#2F2E41"/>
<path d="M23.9805 132.307C23.9805 128.512 25.1058 124.803 27.2141 121.647C29.3225 118.492 32.3192 116.033 35.8252 114.58C39.3313 113.128 43.1893 112.748 46.9113 113.489C50.6333 114.229 54.0522 116.056 56.7356 118.74C59.4191 121.423 61.2465 124.842 61.9868 128.564C62.7272 132.286 62.3472 136.144 60.895 139.65C59.4427 143.156 56.9834 146.153 53.828 148.261C50.6727 150.37 46.963 151.495 43.168 151.495C40.6483 151.495 38.1532 150.999 35.8253 150.034C33.4973 149.07 31.3821 147.657 29.6004 145.875C27.8186 144.093 26.4053 141.978 25.441 139.65C24.4768 137.322 23.9805 134.827 23.9805 132.307ZM43.168 114.596C39.665 114.596 36.2407 115.635 33.328 117.581C30.4153 119.527 28.1452 122.293 26.8047 125.53C25.4641 128.766 25.1134 132.327 25.7968 135.763C26.4802 139.198 28.167 142.354 30.644 144.831C33.121 147.308 36.2769 148.995 39.7126 149.679C43.1483 150.362 46.7095 150.011 49.9459 148.671C53.1823 147.33 55.9485 145.06 57.8946 142.147C59.8408 139.235 60.8796 135.81 60.8795 132.307C60.8742 127.612 59.0064 123.11 55.686 119.789C52.3656 116.469 47.8638 114.601 43.168 114.596Z" fill="#2F2E41"/>
<path d="M87.447 330.087C91.1152 330.087 94.0888 327.113 94.0888 323.445C94.0888 319.777 91.1152 316.803 87.447 316.803C83.7788 316.803 80.8052 319.777 80.8052 323.445C80.8052 327.113 83.7788 330.087 87.447 330.087Z" fill="#00FF9C"/>
<path d="M68.2595 323.445C68.2595 319.65 69.3848 315.94 71.4932 312.785C73.6015 309.629 76.5982 307.17 80.1043 305.718C83.6103 304.266 87.4683 303.886 91.1903 304.626C94.9123 305.366 98.3312 307.194 101.015 309.877C103.698 312.561 105.526 315.98 106.266 319.702C107.006 323.424 106.626 327.282 105.174 330.788C103.722 334.294 101.262 337.29 98.1071 339.399C94.9517 341.507 91.242 342.632 87.447 342.632C82.3582 342.632 77.4778 340.611 73.8794 337.012C70.2811 333.414 68.2595 328.534 68.2595 323.445ZM87.447 305.733C83.944 305.733 80.5197 306.772 77.607 308.718C74.6944 310.664 72.4242 313.431 71.0837 316.667C69.7431 319.903 69.3924 323.464 70.0758 326.9C70.7592 330.336 72.446 333.492 74.923 335.969C77.4 338.446 80.5559 340.133 83.9916 340.816C87.4273 341.499 90.9886 341.149 94.2249 339.808C97.4613 338.468 100.227 336.198 102.174 333.285C104.12 330.372 105.159 326.948 105.159 323.445C105.153 318.749 103.285 314.247 99.965 310.927C96.6446 307.606 92.1428 305.739 87.447 305.733Z" fill="#2F2E41"/>
<path d="M663.932 169.945C667.6 169.945 670.574 166.971 670.574 163.303C670.574 159.635 667.6 156.661 663.932 156.661C660.264 156.661 657.29 159.635 657.29 163.303C657.29 166.971 660.264 169.945 663.932 169.945Z" fill="#00FF9C"/>
<path d="M644.745 163.303C644.745 159.508 645.87 155.798 647.978 152.643C650.087 149.487 653.083 147.028 656.589 145.576C660.095 144.124 663.953 143.744 667.675 144.484C671.397 145.224 674.816 147.052 677.5 149.735C680.183 152.419 682.011 155.837 682.751 159.559C683.491 163.281 683.111 167.139 681.659 170.646C680.207 174.152 677.748 177.148 674.592 179.257C671.437 181.365 667.727 182.49 663.932 182.49C661.412 182.49 658.917 181.994 656.589 181.03C654.261 180.065 652.146 178.652 650.365 176.87C648.583 175.089 647.169 172.973 646.205 170.646C645.241 168.318 644.745 165.823 644.745 163.303ZM663.932 145.591C659.236 145.597 654.735 147.464 651.414 150.785C648.094 154.105 646.226 158.607 646.221 163.303C646.221 166.806 647.259 170.23 649.206 173.143C651.152 176.055 653.918 178.326 657.154 179.666C660.391 181.007 663.952 181.357 667.388 180.674C670.823 179.991 673.979 178.304 676.456 175.827C678.933 173.35 680.62 170.194 681.303 166.758C681.987 163.322 681.636 159.761 680.296 156.525C678.955 153.288 676.685 150.522 673.772 148.576C670.86 146.63 667.435 145.591 663.932 145.591V145.591Z" fill="#2F2E41"/>
<path d="M457.297 165.528L645.471 162.565L645.494 164.04L458.773 166.981V241.529H457.297V165.528Z" fill="#2F2E41"/>
<path d="M105.897 322.707H316.221V248.171H317.697V324.182H105.897V322.707Z" fill="#2F2E41"/>
<path d="M83.7571 166.993H2.5791V172.159H83.7571V166.993Z" fill="#CCCCCC"/>
<path d="M83.7571 181.752H2.5791V186.918H83.7571V181.752Z" fill="#CCCCCC"/>
<path d="M83.7571 196.512H2.5791V201.678H83.7571V196.512Z" fill="#CCCCCC"/>
<path d="M128.036 358.13H46.8579V363.296H128.036V358.13Z" fill="#CCCCCC"/>
<path d="M128.036 372.889H46.8579V378.055H128.036V372.889Z" fill="#CCCCCC"/>
<path d="M128.036 387.649H46.8579V392.815H128.036V387.649Z" fill="#CCCCCC"/>
<path d="M704.521 198.726H623.343V203.892H704.521V198.726Z" fill="#CCCCCC"/>
<path d="M704.521 213.485H623.343V218.651H704.521V213.485Z" fill="#CCCCCC"/>
<path d="M704.521 228.245H623.343V233.411H704.521V228.245Z" fill="#CCCCCC"/>
<path d="M743.166 638.861L731.622 642.987L710.214 600.421L727.253 594.332L743.166 638.861Z" fill="#FFB8B8"/>
<path d="M712.885 662.303L712.717 661.832C711.349 657.989 711.56 653.76 713.306 650.073C715.052 646.386 718.188 643.542 722.028 642.165L744.764 634.039L750.111 649L712.885 662.303Z" fill="#2F2E41"/>
<path d="M668.095 650.28L655.835 650.279L650.003 602.991L668.097 602.992L668.095 650.28Z" fill="#FFB8B8"/>
<path d="M671.221 662.164L631.69 662.162V661.662C631.69 659.642 632.088 657.641 632.862 655.774C633.635 653.907 634.768 652.211 636.197 650.783C637.626 649.354 639.322 648.22 641.189 647.447C643.056 646.674 645.057 646.276 647.077 646.276H647.078L671.222 646.277L671.221 662.164Z" fill="#2F2E41"/>
<path d="M696.035 348.17L690.703 337.635C690.703 337.635 670.841 342.611 669.035 354.123L696.035 348.17Z" fill="#00FF9C"/>
<path d="M718.035 468.635L703.535 549.548L742.035 617.635L719.035 626.635L680.035 560.635L675.035 542.635L672.035 636.635L651.292 636.005L641.781 548.232L657.035 466.635L718.035 468.635Z" fill="#2F2E41"/>
<path d="M648.781 483.232C648.331 481.228 647.041 420.059 647.041 420.059C647.041 420.059 668.366 350.05 668.561 349.475L668.637 349.25L684.828 343.18C685.055 343.076 690.449 340.673 694.864 342.676C695.996 343.227 696.994 344.018 697.789 344.995C698.584 345.971 699.155 347.11 699.465 348.33C701.301 349.698 714.535 364.522 714.535 384.63L715.034 432.079L726.129 483.52L725.639 483.624C725.336 483.688 711.812 487.763 690.511 487.763C678.675 487.763 648.781 483.232 648.781 483.232Z" fill="#3F3D56"/>
<path d="M674.143 334.318C686.228 334.318 696.026 324.52 696.026 312.435C696.026 300.349 686.228 290.552 674.143 290.552C662.057 290.552 652.26 300.349 652.26 312.435C652.26 324.52 662.057 334.318 674.143 334.318Z" fill="#FFB8B8"/>
<path opacity="0.2" d="M705.318 408.841L667.035 462.257L661.381 437.312L705.318 408.841Z" fill="black"/>
<path d="M637.371 463.409C638.743 463.354 640.086 463 641.306 462.37C642.526 461.74 643.593 460.851 644.432 459.764C645.271 458.677 645.861 457.42 646.162 456.08C646.462 454.741 646.465 453.352 646.17 452.011L674.617 434.561L658.909 427.213L634.304 444.91C632.084 445.554 630.178 446.99 628.946 448.946C627.714 450.901 627.243 453.241 627.621 455.521C627.999 457.802 629.2 459.864 630.997 461.318C632.794 462.771 635.062 463.515 637.371 463.409Z" fill="#FFB8B8"/>
<path d="M657.035 427.635L647.292 434.462L655.555 449.135L667.035 439.635L657.035 427.635Z" fill="#00FF9C"/>
<path d="M651.934 428.065L674.851 401.502L666.071 364.863C665.163 361.077 665.665 357.09 667.482 353.646C669.299 350.202 672.307 347.537 675.945 346.149C679.583 344.761 683.601 344.744 687.251 346.102C690.9 347.459 693.93 350.099 695.776 353.527L695.975 353.898L704.066 408.307L663.412 449.977L651.934 428.065Z" fill="#3F3D56"/>
<path d="M692.782 331.434L674.619 332.086C673.512 332.126 670.507 320.177 670.114 317.699C669.803 316.085 668.916 314.64 667.617 313.633C666.318 312.626 664.697 312.126 663.057 312.226C661.698 312.355 658.269 309.815 654.731 306.807C648.015 301.097 648.364 290.372 655.742 285.547C655.944 285.415 656.142 285.294 656.336 285.186C660.991 282.58 666.436 281.705 671.769 281.639C676.604 281.578 681.576 282.187 685.836 284.475C693.473 288.578 697.537 297.544 697.894 306.206C698.251 314.867 695.474 323.337 692.323 331.413" fill="#2F2E41"/>
<path d="M792.563 662.464H571.563C571.298 662.464 571.043 662.358 570.856 662.171C570.668 661.983 570.563 661.729 570.563 661.464C570.563 661.198 570.668 660.944 570.856 660.757C571.043 660.569 571.298 660.464 571.563 660.464H792.563C792.828 660.464 793.083 660.569 793.27 660.757C793.458 660.944 793.563 661.198 793.563 661.464C793.563 661.729 793.458 661.983 793.27 662.171C793.083 662.358 792.828 662.464 792.563 662.464Z" fill="#3F3D56"/>
</g>
<defs>
<clipPath id="clip0_5_706">
<rect width="793.563" height="662.464" fill="white"/>
</clipPath>
</defs>
</svg>
