<svg width="693" height="749" viewBox="0 0 693 749" fill="none" xmlns="http://www.w3.org/2000/svg">
<g clip-path="url(#clip0_5_528)">
<path d="M485.389 327.855C527.012 327.855 560.754 294.113 560.754 252.49C560.754 210.866 527.012 177.124 485.389 177.124C443.766 177.124 410.023 210.866 410.023 252.49C410.023 294.113 443.766 327.855 485.389 327.855Z" fill="#FF6584"/>
<path d="M692.12 308.681C692.287 308.651 692.411 308.535 692.605 308.564C692.52 308.238 692.41 307.919 692.275 307.61C692.035 307.937 691.79 308.271 691.576 308.563L692.12 308.681Z" fill="white"/>
<path d="M186.633 430.865C187.073 447.308 189.827 463.606 194.814 479.281C194.928 479.644 195.048 480.003 195.167 480.366H225.7C225.667 480.041 225.635 479.677 225.602 479.281C223.566 455.876 211.829 313.43 225.863 289.07C224.636 291.046 184.266 356.498 186.633 430.865Z" fill="#E6E6E6"/>
<path d="M188.924 479.281C189.179 479.644 189.445 480.008 189.716 480.367H212.621C212.447 480.057 212.247 479.693 212.013 479.281C208.229 472.451 197.029 452.033 186.633 430.865C175.46 408.117 165.21 384.507 166.073 375.961C165.807 377.889 158.076 436.641 188.924 479.281Z" fill="#E6E6E6"/>
<path d="M426.938 483.196C426.555 497.531 424.153 511.74 419.806 525.406C419.706 525.723 419.602 526.035 419.498 526.352H392.879C392.907 526.068 392.936 525.751 392.964 525.406C394.739 505.001 404.972 380.815 392.737 359.577C393.807 361.3 429.002 418.362 426.938 483.196Z" fill="#E6E6E6"/>
<path d="M424.941 525.406C424.719 525.723 424.487 526.04 424.25 526.352H404.281C404.432 526.083 404.608 525.765 404.811 525.406C408.11 519.451 417.874 501.65 426.938 483.196C436.679 463.364 445.615 442.78 444.862 435.33C445.094 437.011 451.834 488.232 424.941 525.406Z" fill="#E6E6E6"/>
<path d="M122.584 61.1727L134.997 51.2443C125.354 50.1803 121.391 55.4397 119.77 59.6025C112.236 56.4742 104.034 60.574 104.034 60.574L128.871 69.5908C127.618 66.244 125.437 63.3239 122.584 61.1727Z" fill="#3F3D56"/>
<path d="M496.468 10.0675L508.881 0.139043C499.238 -0.924897 495.275 4.33445 493.654 8.49727C486.12 5.36892 477.918 9.46878 477.918 9.46878L502.756 18.4855C501.503 15.1388 499.321 12.2187 496.468 10.0675Z" fill="#3F3D56"/>
<path d="M679.109 402.689C679.109 410.916 678.823 419.075 678.25 427.167C673.828 491.009 651.692 552.353 614.327 604.308C609.444 611.122 604.317 617.746 598.946 624.178C585.029 640.87 569.577 656.219 552.793 670.024L479.222 626.853L435.234 524.187C435.234 524.187 500.865 391.3 678.993 393.709C679.067 396.692 679.106 399.685 679.109 402.689Z" fill="#3F3D56"/>
<path d="M678.25 427.167C674.865 474.874 661.629 521.362 639.376 563.697C617.124 606.032 586.338 643.295 548.961 673.134L480.612 633.031L441.603 541.977C441.603 541.977 504.814 413.994 678.25 427.167Z" fill="#57FFBE"/>
<path d="M614.327 604.308C609.444 611.122 604.317 617.746 598.946 624.179C562.956 667.42 516.969 701.238 464.966 722.705C454.436 727.047 443.658 730.875 432.633 734.191C353.023 755.362 268.681 750.007 192.388 718.937C116.934 685.26 55.9599 625.784 20.4167 551.191C15.64 541.149 11.3446 530.853 7.53027 520.302C74.0534 471.569 205.136 401.787 348.001 469.595C387.52 488.351 422.807 505.448 453.863 520.886C532.667 559.948 585.115 588.109 614.327 604.308Z" fill="#3F3D56"/>
<path d="M598.946 624.179C561.743 668.766 513.924 703.281 459.888 724.549C405.853 745.816 347.336 753.154 289.723 745.885C232.11 738.616 177.249 716.976 130.189 682.954C83.129 648.932 45.3806 603.621 20.4167 551.191C75.9747 507.256 204.117 428.303 344.742 495.038C380.907 512.203 413.194 527.849 441.603 541.977C524.42 583.025 575.435 610.921 598.946 624.179Z" fill="#57FFBE"/>
<path d="M500.886 705.393C489.252 711.842 477.259 717.623 464.966 722.705C423.131 739.945 378.314 748.789 333.066 748.733C279.524 748.712 226.716 736.278 178.79 712.409C130.863 688.54 89.1228 653.884 56.8467 611.165C139.494 602.45 367.946 590.699 500.886 705.393Z" fill="#3F3D56"/>
<path d="M464.966 722.705C400.095 749.379 328.656 755.733 260.096 740.926C191.537 726.12 129.087 690.85 81.0061 639.782C111.067 635.367 347.078 605.04 464.966 722.705Z" fill="#57FFBE"/>
<path d="M621.068 210.794V210.805C373.976 28.1131 90.8781 156.701 88.6914 157.688V157.678C120.779 125.594 158.881 100.155 200.815 82.8186C242.748 65.4819 287.69 56.5879 333.066 56.6458C453.194 56.6458 559.024 117.861 621.068 210.794Z" fill="#E6E6E6"/>
<path d="M108.51 409.398C150.309 401.861 171.729 326.612 156.352 241.323C140.975 156.034 94.6232 93.0032 52.8232 100.54C11.0233 108.076 -10.3965 183.326 4.98085 268.615C20.3582 353.903 66.7096 416.934 108.51 409.398Z" fill="#3F3D56"/>
<path d="M119.252 509.004C116.774 321.668 54.0938 145.864 53.4612 144.111L47.7449 146.173C48.3744 147.917 110.711 322.8 113.176 509.087L119.252 509.004Z" fill="#57FFBE"/>
<path d="M8.04526 233.776L6.17505 239.559L81.2155 263.827L83.0857 258.044L8.04526 233.776Z" fill="#57FFBE"/>
<path d="M149.203 227.261L87.3743 276.228L91.1477 280.992L152.976 232.026L149.203 227.261Z" fill="#57FFBE"/>
<path d="M309.499 382.39C355.46 382.39 392.719 306.367 392.719 212.589C392.719 118.811 355.46 42.7881 309.499 42.7881C263.539 42.7881 226.28 118.811 226.28 212.589C226.28 306.367 263.539 382.39 309.499 382.39Z" fill="#3F3D56"/>
<path d="M301.815 490.526C335.145 290.551 302.15 91.2987 301.813 89.311L295.33 90.4093C295.665 92.3873 328.47 290.593 295.328 489.447L301.815 490.526Z" fill="#57FFBE"/>
<path d="M236.233 176.077L233.131 181.876L308.383 222.127L311.485 216.328L236.233 176.077Z" fill="#57FFBE"/>
<path d="M387.805 196.24L312.562 236.514L315.665 242.313L390.909 202.038L387.805 196.24Z" fill="#57FFBE"/>
<path d="M670.979 327.77C640.445 310.627 608.545 296.042 575.604 284.164C393.464 218.257 212.853 243.658 142.158 337.981C197.175 222.428 393.486 186.094 591.59 257.776C614.647 266.111 637.212 275.751 659.175 286.648C663.96 300.097 667.902 313.831 670.979 327.77Z" fill="#E6E6E6"/>
<path d="M424.987 141.823L437.4 131.894C427.757 130.83 423.794 136.09 422.173 140.252C414.639 137.124 406.437 141.224 406.437 141.224L431.274 150.241C430.021 146.894 427.84 143.974 424.987 141.823Z" fill="#3F3D56"/>
</g>
<defs>
<clipPath id="clip0_5_528">
<rect width="692.605" height="748.733" fill="white"/>
</clipPath>
</defs>
</svg>
