<svg width="799" height="558" viewBox="0 0 799 558" fill="none" xmlns="http://www.w3.org/2000/svg">
<g clip-path="url(#clip0_5_651)">
<path d="M616.37 4.7168V439.816C591.989 386.653 552.932 341.57 503.799 309.879C503.279 309.541 502.752 309.202 502.225 308.876C453.329 277.738 396.553 261.245 338.596 261.341H15.0486V4.7168H616.37Z" fill="#3F3D56"/>
<path d="M601.321 480.945V457.384C553.122 352.07 446.875 278.909 323.547 278.909H0V480.945H601.321Z" fill="#57FFBE"/>
<path d="M69.4676 53.1857H51.6138V35.3202H69.4676V53.1857ZM54.4786 50.3194H66.6027V38.1869H54.4786V50.3194Z" fill="#F2F2F2"/>
<path d="M437.98 429.495H31.0378V351.065H437.98V429.495ZM32.2919 428.24H436.726V352.32H32.2919V428.24Z" fill="#F2F2F2"/>
<path opacity="0.1" d="M76.8111 382.123H44.2056V414.75H76.8111V382.123Z" fill="black"/>
<path d="M406.628 365.81H138.887V373.966H406.628V365.81Z" fill="#F2F2F2"/>
<path d="M406.628 386.515H138.887V394.672H406.628V386.515Z" fill="#F2F2F2"/>
<path d="M406.628 407.221H138.887V415.378H406.628V407.221Z" fill="#F2F2F2"/>
<path d="M93.741 415.378H43.5786V365.182H93.741V415.378ZM44.8327 414.123H92.4869V366.437H44.8327V414.123Z" fill="#F2F2F2"/>
<path d="M491.904 417.26C486.572 417.26 481.359 415.678 476.925 412.713C472.491 409.748 469.035 405.535 466.995 400.605C464.954 395.675 464.42 390.25 465.46 385.016C466.501 379.783 469.068 374.975 472.839 371.202C476.61 367.429 481.414 364.859 486.644 363.818C491.874 362.777 497.296 363.312 502.222 365.354C507.149 367.396 511.36 370.854 514.323 375.291C517.285 379.727 518.867 384.944 518.867 390.28C518.858 397.433 516.015 404.291 510.961 409.349C505.906 414.407 499.053 417.252 491.904 417.26V417.26ZM491.904 364.555C486.82 364.555 481.849 366.064 477.622 368.89C473.394 371.717 470.099 375.735 468.153 380.435C466.207 385.136 465.698 390.308 466.69 395.299C467.682 400.289 470.131 404.873 473.726 408.47C477.321 412.068 481.902 414.518 486.889 415.511C491.876 416.503 497.045 415.994 501.743 414.047C506.44 412.1 510.455 408.803 513.28 404.572C516.105 400.342 517.613 395.368 517.613 390.28C517.605 383.46 514.894 376.921 510.074 372.098C505.255 367.275 498.72 364.562 491.904 364.555V364.555Z" fill="#F2F2F2"/>
<path d="M509.277 375.037L508.391 374.15L491.904 390.648L475.418 374.15L474.531 375.037L491.018 391.534L476.726 405.836L477.612 406.723L491.904 392.422L506.196 406.723L507.083 405.836L492.791 391.534L509.277 375.037Z" fill="#F2F2F2"/>
<path d="M484.938 16.0485L104.112 80.5244L134.686 261.341H135.952L105.554 81.5471L483.91 17.4979L532.31 303.781L502.225 308.876C502.752 309.202 503.279 309.541 503.799 309.88L533.759 304.81L484.938 16.0485Z" stroke="#F2F2F2" stroke-width="2" stroke-miterlimit="10"/>
<path d="M312.888 185.506C325.486 223.448 321.062 259.073 321.062 259.073C321.062 259.073 296.21 233.182 283.611 195.24C271.013 157.299 275.437 121.674 275.437 121.674C275.437 121.674 300.289 147.564 312.888 185.506Z" fill="#57FFBE"/>
<path d="M329.236 185.506C316.637 223.448 321.062 259.073 321.062 259.073C321.062 259.073 345.913 233.182 358.512 195.24C371.111 157.299 366.686 121.674 366.686 121.674C366.686 121.674 341.834 147.564 329.236 185.506Z" fill="#57FFBE"/>
<path d="M334.31 185.916C335.155 225.889 320.418 258.619 320.418 258.619C320.418 258.619 304.312 226.542 303.467 186.569C302.623 146.596 317.36 113.866 317.36 113.866C317.36 113.866 333.466 145.944 334.31 185.916Z" fill="#F2F2F2"/>
<path d="M318.889 154.503C321.048 154.503 322.799 152.751 322.799 150.59C322.799 148.429 321.048 146.677 318.889 146.677C316.729 146.677 314.978 148.429 314.978 150.59C314.978 152.751 316.729 154.503 318.889 154.503Z" fill="#57FFBE"/>
<path d="M311.285 184.069C312.484 184.069 313.457 183.096 313.457 181.895C313.457 180.694 312.484 179.721 311.285 179.721C310.085 179.721 309.112 180.694 309.112 181.895C309.112 183.096 310.085 184.069 311.285 184.069Z" fill="#57FFBE"/>
<path d="M284.78 162.547C285.98 162.547 286.952 161.573 286.952 160.373C286.952 159.172 285.98 158.199 284.78 158.199C283.58 158.199 282.607 159.172 282.607 160.373C282.607 161.573 283.58 162.547 284.78 162.547Z" fill="#3F3D56"/>
<path d="M361.47 141.459C362.67 141.459 363.643 140.486 363.643 139.285C363.643 138.085 362.67 137.111 361.47 137.111C360.27 137.111 359.298 138.085 359.298 139.285C359.298 140.486 360.27 141.459 361.47 141.459Z" fill="#3F3D56"/>
<path d="M296.077 182.982C297.277 182.982 298.249 182.009 298.249 180.808C298.249 179.607 297.277 178.634 296.077 178.634C294.877 178.634 293.904 179.607 293.904 180.808C293.904 182.009 294.877 182.982 296.077 182.982Z" fill="#3F3D56"/>
<path d="M341.7 170.373C342.9 170.373 343.873 169.4 343.873 168.199C343.873 166.998 342.9 166.025 341.7 166.025C340.5 166.025 339.528 166.998 339.528 168.199C339.528 169.4 340.5 170.373 341.7 170.373Z" fill="#3F3D56"/>
<path d="M297.381 214.939C298.58 214.939 299.553 213.966 299.553 212.765C299.553 211.565 298.58 210.591 297.381 210.591C296.181 210.591 295.208 211.565 295.208 212.765C295.208 213.966 296.181 214.939 297.381 214.939Z" fill="#3F3D56"/>
<path d="M343.873 202.547C345.073 202.547 346.045 201.574 346.045 200.374C346.045 199.173 345.073 198.2 343.873 198.2C342.673 198.2 341.7 199.173 341.7 200.374C341.7 201.574 342.673 202.547 343.873 202.547Z" fill="#3F3D56"/>
<path d="M322.799 204.721C323.999 204.721 324.972 203.748 324.972 202.548C324.972 201.347 323.999 200.374 322.799 200.374C321.599 200.374 320.626 201.347 320.626 202.548C320.626 203.748 321.599 204.721 322.799 204.721Z" fill="#57FFBE"/>
<path d="M781.57 486.146C781.57 486.146 783.993 510.397 788.032 518.48C788.032 518.48 763.798 524.139 762.99 519.289C762.182 514.439 763.798 495.847 763.798 495.847L781.57 486.146Z" fill="#A0616A"/>
<path d="M660.396 498.271C660.396 498.271 662.82 522.522 666.859 530.606C666.859 530.606 642.624 536.264 641.816 531.414C641.008 526.564 643.432 500.697 643.432 500.697L660.396 498.271Z" fill="#A0616A"/>
<path d="M765.413 159.57C765.413 159.57 782.378 216.155 771.876 226.664C761.374 237.173 736.332 272.74 736.332 272.74L728.253 258.998C728.253 258.998 756.527 219.389 753.296 210.497C750.065 201.605 741.986 177.354 741.986 177.354C741.986 177.354 755.719 156.337 765.413 159.57Z" fill="#A0616A"/>
<path d="M686.247 90.8601C704.093 90.8601 718.56 76.3836 718.56 58.5259C718.56 40.6682 704.093 26.1917 686.247 26.1917C668.401 26.1917 653.934 40.6682 653.934 58.5259C653.934 76.3836 668.401 90.8601 686.247 90.8601Z" fill="#A0616A"/>
<path d="M715.328 62.5677C715.328 62.5677 728.253 97.3271 735.524 100.56C742.794 103.794 755.719 119.153 755.719 119.153C755.719 119.153 757.335 159.57 748.449 159.57C739.563 159.57 690.286 102.177 690.286 102.177C690.286 102.177 692.709 90.8602 687.862 84.3934C683.015 77.9265 715.328 62.5677 715.328 62.5677Z" fill="#A0616A"/>
<path d="M727.446 221.814V231.514C727.446 231.514 741.987 256.573 742.794 301.841L750.065 382.677C750.065 382.677 788.033 444.112 782.378 479.679L783.186 493.421L763.798 499.888L757.335 488.571C757.335 488.571 750.873 487.763 745.218 469.979L710.481 391.569L689.478 327.708L676.553 410.969C676.553 410.969 682.208 487.763 667.667 490.188V502.313L641.009 503.122V491.805C641.009 491.805 632.122 495.038 632.93 481.296C633.738 467.554 632.93 407.736 632.93 407.736L628.083 305.074C628.083 305.074 617.349 256.983 623.12 247.482L654.742 194.33L727.446 221.814Z" fill="#2F2E41"/>
<path d="M783.186 516.864C783.186 516.864 791.264 513.63 792.879 517.672C794.495 521.714 805.805 543.539 792.879 545.156C779.954 546.773 771.876 545.156 771.876 545.156C771.876 545.156 761.374 543.539 757.335 544.348C753.296 545.156 737.14 542.731 738.755 530.606C740.371 518.48 750.873 520.097 750.873 520.097C750.873 520.097 761.374 513.63 761.374 511.205C761.374 508.78 765.413 515.247 765.413 515.247C765.413 515.247 768.645 520.906 783.186 516.864Z" fill="#2F2E41"/>
<path d="M662.012 528.989C662.012 528.989 670.09 525.756 671.706 529.797C673.321 533.839 684.631 555.665 671.706 557.281C658.78 558.898 650.702 557.281 650.702 557.281C650.702 557.281 640.2 555.665 636.161 556.473C632.122 557.281 615.966 554.856 617.581 542.731C619.197 530.606 629.699 532.222 629.699 532.222C629.699 532.222 640.2 525.756 640.2 523.331C640.2 520.905 644.24 527.372 644.24 527.372C644.24 527.372 647.471 533.031 662.012 528.989Z" fill="#2F2E41"/>
<path d="M739.563 144.212C739.563 144.212 767.029 137.93 739.563 103.078C739.563 103.078 761.374 109.452 763.798 126.428C766.221 143.403 767.029 164.421 767.029 164.421C767.029 164.421 753.296 160.379 746.025 178.971C738.755 197.563 728.253 207.263 731.485 226.664L650.702 196.755C650.702 196.755 662.012 173.312 656.357 162.804C650.702 152.295 657.973 132.895 657.973 132.895C657.973 132.895 679.784 80.3515 699.979 101.369C720.175 122.386 718.559 139.362 739.563 144.212Z" fill="#D0CDE1"/>
<path d="M691.901 140.978C691.901 140.978 688.67 194.33 679.784 204.03C670.898 213.73 635.354 254.148 635.354 254.148L633.738 263.848L625.66 269.507C625.66 269.507 617.582 250.106 626.468 242.023L657.165 187.054L664.435 135.32L691.901 140.978Z" fill="#A0616A"/>
<path d="M666.859 98.9438C666.859 98.9438 685.694 88.0515 690.817 97.9436C695.94 107.836 693.517 147.445 693.517 147.445L659.588 143.403C659.588 143.403 662.012 99.7521 666.859 98.9438Z" fill="#D0CDE1"/>
<path d="M649.2 56.5696C643.23 49.4076 648.198 49.3995 648.198 49.3995C648.61 51.9701 651.26 55.1631 653.942 57.8226C655.845 59.6911 657.858 61.4455 659.968 63.0769L659.402 61.1126L664.661 64.5723C666.398 80.4404 675.357 78.2093 675.357 78.2093C667.973 73.5774 670.017 65.8738 671.043 62.0179C672.061 58.1621 678.976 58.9785 679.38 70.247C679.784 81.5155 687.426 84.3286 687.426 84.3286L688.896 90.7469L690.181 96.3407L693.679 90.0032L695.318 87.0285C706.305 88.1278 707.589 77.797 707.589 77.797C710.07 76.6279 712.462 75.2798 714.747 73.7633C731.913 62.2362 726.145 48.9953 722.009 42.9165C721.208 41.7172 720.308 40.587 719.319 39.5376C719.561 39.5861 719.804 39.6346 720.038 39.675C752.973 45.8427 736.275 26.814 736.275 26.814L744.539 30.8316L760.033 32.7635L747.52 21.4385C756.487 20.9535 765.478 34.9461 765.753 35.3745C760.187 18.488 749.297 20.2098 749.297 20.2098L752.585 19.264L746.85 16.6449L753.514 17.5664C753.514 17.5664 751.632 15.9739 748.716 13.2579C745.799 10.5418 732.002 9.54752 732.002 9.54752C746.066 4.06687 759.896 15.0201 759.896 15.0201C752.294 -2.22214 733.609 3.89711 724.352 8.28649L719.828 8.81192C719.925 8.48049 720.046 7.12245 719.973 2.34507C719.86 -5.25347 710.877 7.9874 710.433 8.64216C710.433 8.54516 709.964 8.02781 703.841 5.58658C696.7 2.73308 699.745 18.4071 699.834 18.8274V18.8355C699.834 18.8355 699.907 18.9406 699.309 18.8597C698.186 18.7142 694.704 17.9059 684.009 14.5108C674.767 11.5765 669.04 14.6078 665.792 17.817C661.531 22.1428 656.465 25.592 650.88 27.9699C649.078 28.7136 647.463 29.3279 646.413 29.6351C642.479 30.7668 640.419 33.4991 636.59 42.4314C632.825 51.2426 648.755 56.4322 649.2 56.5696Z" fill="#2F2E41"/>
<path d="M699.309 18.86C703.098 24.2598 714.052 39.1901 722.009 42.9166C721.208 41.7173 720.308 40.5871 719.319 39.5377C719.561 39.5862 719.804 39.6347 720.038 39.6751L699.834 18.8438V18.8276L699.309 18.86Z" fill="#D0CDE1"/>
</g>
<defs>
<clipPath id="clip0_5_651">
<rect width="799" height="558" fill="white"/>
</clipPath>
</defs>
</svg>
